<svg width="22" height="22" viewBox="0 0 22 22" fill="none" xmlns="http://www.w3.org/2000/svg">
<path fill-rule="evenodd" clip-rule="evenodd" d="M13.5019 8.4707C14.5804 8.47075 15.4646 8.60147 16.1552 8.83594C16.8417 9.06908 17.3725 9.4172 17.6884 9.87598C18.0155 10.3512 18.0797 10.9007 17.9052 11.4297C17.7363 11.9416 17.3547 12.4078 16.8388 12.7979C16.6185 12.9644 16.3051 12.9205 16.1386 12.7002C15.9723 12.48 16.0152 12.1665 16.2353 12C16.6448 11.6903 16.8685 11.3781 16.955 11.1162C17.0357 10.8714 17.0064 10.65 16.8642 10.4434C16.7106 10.2204 16.3956 9.974 15.8339 9.7832C15.4408 9.64973 14.9425 9.55062 14.332 9.50293C14.4896 10.5052 14.4842 11.3238 14.4306 11.9189C14.3997 12.261 14.3536 12.5295 14.3134 12.7158C14.2934 12.8088 14.2748 12.8822 14.2607 12.9336C14.2537 12.9589 14.2476 12.9793 14.2431 12.9941C14.2409 13.0014 14.2387 13.008 14.2372 13.0127L14.2343 13.0215V13.0225C14.2254 13.0493 14.2119 13.0744 14.1992 13.0986C14.568 13.1904 14.9035 13.3158 15.1835 13.4922C15.4803 13.6792 15.7279 13.9307 15.8808 14.2627C16.0331 14.5936 16.0733 14.9659 16.0204 15.3662C15.9174 16.145 15.4536 17.1022 14.6328 18.2842C14.4752 18.5107 14.1642 18.5665 13.9374 18.4092C13.7107 18.2517 13.6542 17.9407 13.8115 17.7139C14.6107 16.563 14.9577 15.7688 15.0283 15.2354C15.062 14.98 15.0299 14.8052 14.9726 14.6807C14.9157 14.5572 14.8162 14.4434 14.6503 14.3389C14.2955 14.1153 13.705 13.9753 12.8769 13.9033C12.0639 13.8327 11.1035 13.832 10.0556 13.832C10.0374 13.832 10.0196 13.8281 10.0019 13.8262C9.08693 15.0125 7.74543 16.3039 5.74017 17.9209C5.52521 18.0942 5.21038 18.0607 5.03705 17.8457C4.86375 17.6307 4.89729 17.3159 5.11224 17.1426C7.41375 15.2867 8.75762 13.9237 9.58392 12.7021C10.2908 11.657 10.6303 10.6966 10.8544 9.57617C8.26112 9.80352 6.44858 10.4049 4.75873 11.4268C4.52243 11.5697 4.2151 11.4941 4.0722 11.2578C3.92943 11.0215 4.00491 10.7142 4.24115 10.5713C6.65859 9.10942 9.27803 8.4707 13.5019 8.4707ZM13.3115 9.47168C12.8113 9.47405 12.3361 9.4864 11.8837 9.50781C11.6703 10.6799 11.3519 11.7288 10.6835 12.8359C11.4951 12.8383 12.2749 12.8474 12.9638 12.9072C13.0651 12.916 13.166 12.9253 13.2656 12.9365C13.2549 12.8625 13.2591 12.7848 13.2841 12.709C13.2845 12.7079 13.2855 12.7059 13.2861 12.7041C13.2881 12.6973 13.2914 12.6853 13.2958 12.6689C13.3052 12.6347 13.3199 12.5791 13.3359 12.5049C13.368 12.3558 13.4076 12.1279 13.4345 11.8291C13.4845 11.2748 13.4873 10.4742 13.3115 9.47168ZM12.9257 3.5C14.0292 3.5001 14.907 4.4096 14.9072 5.51074C14.9072 6.61202 14.0293 7.52243 12.9257 7.52246C11.8222 7.52236 10.9443 6.61199 10.9443 5.51074C10.9444 4.40956 11.8222 3.50005 12.9257 3.5ZM12.9257 4.5C12.393 4.50006 11.9444 4.94322 11.9443 5.51074C11.9443 6.07837 12.3929 6.52237 12.9257 6.52246C13.4585 6.52243 13.9071 6.07837 13.9072 5.51074C13.907 4.94325 13.4584 4.5001 12.9257 4.5Z" fill="currentColor"/>
</svg>
