<svg width="22" height="22" viewBox="0 0 22 22" fill="none" xmlns="http://www.w3.org/2000/svg">
<path fill-rule="evenodd" clip-rule="evenodd" d="M7.70181 9.35059C7.8738 9.28348 8.06943 9.31634 8.20962 9.43652C9.70773 10.7207 11.3983 11.1877 13.0338 11.3291C13.8539 11.4 14.6561 11.3887 15.4118 11.3584C16.1524 11.3286 16.8834 11.2783 17.4967 11.2783C17.7727 11.2785 17.9967 11.5023 17.9967 11.7783C17.9967 12.0543 17.7727 12.2781 17.4967 12.2783C16.9088 12.2783 16.2375 12.3259 15.4518 12.3574C14.6806 12.3884 13.8299 12.4014 12.9479 12.3252C11.7914 12.2252 10.5732 11.9694 9.39126 11.3965C8.71184 12.0905 7.69523 13.7542 7.59243 15.9326C8.30119 15.994 9.11169 16.0087 9.97427 15.9873C12.3926 15.9273 15.1334 15.5871 16.9967 15.2793V14.1328C16.9967 13.8568 17.2208 13.6331 17.4967 13.6328C17.7727 13.633 17.9967 13.8568 17.9967 14.1328V15.7031C17.9965 15.9456 17.8224 16.1532 17.5836 16.1953C15.6992 16.525 12.6688 16.921 9.99966 16.9873C8.66842 17.0203 7.39967 16.9718 6.40103 16.7822C5.9026 16.6875 5.44596 16.5539 5.07583 16.3613C4.70763 16.1697 4.37802 15.8947 4.21646 15.499C3.72845 14.3032 4.11625 12.9482 4.80728 11.8545C5.50453 10.751 6.58443 9.7885 7.70181 9.35059ZM7.80532 10.3984C7.00336 10.7895 6.19805 11.5261 5.65298 12.3887C5.04243 13.355 4.82948 14.3546 5.14224 15.1211C5.181 15.2159 5.28557 15.3424 5.53775 15.4736C5.78806 15.6038 6.13941 15.7147 6.58755 15.7998C6.59029 15.8003 6.59361 15.8012 6.59634 15.8018C6.72316 13.572 7.69488 11.8126 8.49575 10.8945C8.26285 10.7443 8.03241 10.5792 7.80532 10.3984ZM10.6881 4.99902C11.8391 4.9994 12.7895 5.91602 12.7897 7.06836C12.7897 8.22081 11.8391 9.13829 10.6881 9.13867C9.53681 9.13867 8.58562 8.22105 8.5856 7.06836C8.58575 5.91578 9.53688 4.99902 10.6881 4.99902ZM10.6881 5.99902C10.0698 5.99902 9.58575 6.48721 9.5856 7.06836C9.58562 7.64961 10.0697 8.13867 10.6881 8.13867C11.3062 8.13829 11.7897 7.64939 11.7897 7.06836C11.7895 6.48743 11.3061 5.9994 10.6881 5.99902Z" fill="currentColor"/>
</svg>
