<svg width="22" height="22" viewBox="0 0 22 22" fill="none" xmlns="http://www.w3.org/2000/svg">
<path d="M11.0068 4C14.8294 4 18 7.17059 18 11C18 14.8226 14.8225 18 11 18C7.17068 17.9999 4 14.8225 4 11C4 7.17069 7.17752 4.00015 11.0068 4ZM14.1885 8.66992C13.7658 11.0647 12.6332 14.1258 10.4316 17.0381C10.619 17.056 10.8085 17.0664 11 17.0664C12.4578 17.0664 13.8065 16.5337 14.8604 15.6553C15.6058 13.8377 14.8748 11.3608 14.8926 9.12598C14.6643 8.96406 14.4295 8.81185 14.1885 8.66992ZM12.3838 7.84277C11.2979 10.3686 6.76416 11.417 5.71289 13.9443C6.53187 15.3943 7.92899 16.4852 9.57715 16.8916C11.9822 13.8485 13.1291 10.6553 13.5049 8.30273C13.1428 8.12666 12.7686 7.9732 12.3838 7.84277ZM15.6738 9.74023C15.7521 11.2622 16.0911 12.9653 15.918 14.5195C16.6007 13.574 17.0199 12.4311 17.0615 11.2021C16.6427 10.6675 16.1781 10.1782 15.6738 9.74023ZM9.23633 7.32812C8.01373 7.32815 6.86132 7.5444 5.76172 7.97266C5.23684 8.86728 4.93359 9.90255 4.93359 11C4.93359 11.7221 5.06418 12.4174 5.30273 13.0635C6.78603 10.5894 10.6793 9.59007 11.6387 7.62207C10.872 7.42957 10.0681 7.32812 9.23633 7.32812ZM15.9971 7.58691C15.8184 7.88377 15.692 8.35609 15.6738 8.66016C15.6715 8.69352 15.6708 8.72709 15.6689 8.76074C16.1323 9.11527 16.5659 9.5079 16.9678 9.93164C16.812 9.0771 16.4754 8.28123 15.9971 7.58691ZM14.3643 5.96777C14.4079 6.5042 14.3924 7.14839 14.3066 7.87305C14.5298 7.99577 14.7485 8.12575 14.9619 8.26367C15.0473 7.84145 15.2339 7.33369 15.5215 6.98145C15.1796 6.59763 14.7911 6.25607 14.3643 5.96777ZM12.0664 5.0293C12.4169 5.50296 12.6201 6.07263 12.6201 6.7041C12.6201 6.84598 12.609 6.98348 12.5898 7.11719C12.9368 7.23436 13.276 7.36919 13.6064 7.52051C13.6861 6.6819 13.6556 5.99015 13.5459 5.50391C13.0805 5.28493 12.5845 5.12314 12.0664 5.0293ZM10.8877 4.93652C9.18344 4.97057 7.63456 5.72927 6.54395 6.91504C7.40537 6.68852 8.3171 6.56643 9.23633 6.56641C10.1367 6.56641 11.0115 6.68143 11.8477 6.89648C11.8535 6.83334 11.8584 6.76932 11.8584 6.7041C11.8584 5.94302 11.5177 5.36004 10.8877 4.93652Z" fill="currentColor"/>
</svg>
