<svg width="22" height="22" viewBox="0 0 22 22" fill="none" xmlns="http://www.w3.org/2000/svg">
<path fill-rule="evenodd" clip-rule="evenodd" d="M10.7881 3.52324C11.0513 3.44034 11.3319 3.58626 11.415 3.84941C12.0433 5.84336 11.4409 7.32333 10.5576 8.35429C10.4428 8.48834 10.3218 8.61459 10.1992 8.73417C10.676 8.57305 11.1727 8.3763 11.6543 8.13456C13.091 7.41335 14.2898 6.37445 14.6182 4.96757C14.6811 4.699 14.9501 4.53196 15.2188 4.59453C15.4876 4.6573 15.6545 4.92627 15.5918 5.19511C15.2183 6.79543 14.0144 7.92951 12.6963 8.70488C12.895 8.76547 13.086 8.83015 13.2695 8.89921L15.7861 7.78496C16.0384 7.67329 16.3343 7.78768 16.4463 8.03984C16.5579 8.29215 16.4436 8.58713 16.1914 8.69902L14.4336 9.47734C15.0043 9.85112 15.461 10.3284 15.7998 10.9695C16.1905 11.7089 16.4053 12.6258 16.5029 13.7664C16.5904 14.7893 16.583 16.0183 16.5127 17.4998H17.5039C17.7799 17.4998 18.0037 17.7238 18.0039 17.9998C18.0039 18.2759 17.78 18.4998 17.5039 18.4998H15.9893C15.8519 18.4998 15.7204 18.4434 15.626 18.3435C15.5316 18.2438 15.4827 18.1096 15.4902 17.9725C15.5845 16.2673 15.5985 14.924 15.5068 13.8523C15.4151 12.7796 15.2195 12.0106 14.916 11.4363C14.573 10.7874 14.0643 10.338 13.2842 9.98613L11.7861 10.6502C12.4006 11.1184 12.917 11.7862 13.1455 12.7381C13.4092 13.8369 13.2722 15.2494 12.5684 17.076H13.3379C13.6139 17.0761 13.8378 17.2999 13.8379 17.576C13.8378 17.852 13.6139 18.0759 13.3379 18.076H11.8223C11.6536 18.0759 11.4966 17.9905 11.4043 17.8494C11.312 17.7081 11.2965 17.5294 11.3643 17.3748C12.2734 15.3036 12.3976 13.9084 12.1729 12.9715C11.9536 12.0578 11.3832 11.5026 10.7002 11.1414C10.6967 11.1396 10.6929 11.1383 10.6895 11.1365L4.70215 13.7898C4.44985 13.9015 4.15492 13.7881 4.04297 13.5359C3.93135 13.2835 4.0455 12.9876 4.29785 12.8758L9.30762 10.6551C9.05613 10.5993 8.8156 10.5576 8.59863 10.5242C8.32277 10.4818 8.02816 10.4449 7.85547 10.4012C7.80768 10.3891 7.74474 10.3702 7.68262 10.3416C7.63774 10.3209 7.50196 10.2556 7.41504 10.1033C7.36394 10.0137 7.33585 9.90395 7.34766 9.78691C7.35885 9.67677 7.40171 9.59154 7.43945 9.53593C7.50758 9.43572 7.59642 9.37551 7.64062 9.34746L8.07812 9.08085C8.582 8.77459 9.25223 8.3406 9.79785 7.7039C10.495 6.89029 10.9698 5.76207 10.4619 4.15019C10.379 3.88695 10.525 3.60636 10.7881 3.52324ZM11.3232 9.38164C10.9009 9.5561 10.4796 9.7011 10.0771 9.82206C10.2807 9.88241 10.4884 9.95517 10.6963 10.0398L11.8799 9.51542C11.7031 9.47009 11.5179 9.42482 11.3232 9.38164ZM6.01465 5.30253C7.10392 5.30257 8.03 6.14954 8.03027 7.24492C8.03027 8.34053 7.10408 9.18727 6.01465 9.1873C4.92536 9.18709 4 8.34042 4 7.24492C4.00028 6.14965 4.92552 5.30274 6.01465 5.30253ZM6.01465 6.30253C5.43103 6.30274 5.00028 6.74758 5 7.24492C5 7.74245 5.43084 8.1871 6.01465 8.1873C6.59863 8.18727 7.03027 7.74255 7.03027 7.24492C7.02999 6.74748 6.59844 6.30256 6.01465 6.30253Z" fill="currentColor"/>
</svg>
