<svg width="22" height="22" viewBox="0 0 22 22" fill="none" xmlns="http://www.w3.org/2000/svg">
<path fill-rule="evenodd" clip-rule="evenodd" d="M5.20239 5.9502C6.20394 5.9502 8.34686 6.12858 10.2463 6.5293C11.1935 6.72912 12.1135 6.99065 12.8079 7.3291C13.1542 7.49792 13.4718 7.69929 13.7092 7.94336C13.8278 8.06529 13.9324 8.20507 14.0081 8.36133C14.0854 8.44936 14.134 8.56306 14.134 8.68945C14.134 8.98353 14.2649 9.173 14.4885 9.30273C14.7353 9.44581 15.1054 9.514 15.5129 9.46973C15.917 9.42575 16.3032 9.27676 16.5774 9.05176C16.8421 8.83441 16.9982 8.55326 16.9983 8.2002C16.9983 7.9242 17.2224 7.70044 17.4983 7.7002C17.7744 7.7002 17.9983 7.92405 17.9983 8.2002C17.9982 8.89665 17.6718 9.44678 17.2122 9.82422C16.7619 10.1939 16.1821 10.4028 15.6204 10.4639C15.062 10.5245 14.4652 10.4448 13.9875 10.168C13.894 10.1137 13.8077 10.0493 13.7258 9.98047C13.6182 10.1489 13.4952 10.3236 13.3596 10.498C13.0954 10.8379 12.7746 11.1967 12.4329 11.5566C12.4397 11.5595 12.4465 11.5626 12.4534 11.5654C12.6705 11.6548 12.895 11.7442 13.092 11.8408C13.496 12.039 13.8971 12.3185 14.0676 12.8623C14.2229 13.3576 14.154 13.9815 13.9358 14.7842C13.7488 15.4717 13.4313 16.3531 12.9709 17.499H13.634C13.9101 17.499 14.1339 17.723 14.134 17.999C14.134 18.2752 13.9102 18.499 13.634 18.499H12.2288C12.0621 18.4989 11.9065 18.4159 11.8137 18.2773C11.721 18.1387 11.7032 17.9628 11.7668 17.8086C12.3803 16.3243 12.7656 15.2766 12.9709 14.5215C13.1808 13.7498 13.1775 13.3669 13.1135 13.1621C13.0646 13.0061 12.961 12.891 12.6516 12.7393C12.4919 12.6609 12.3068 12.5867 12.0725 12.4902C11.9491 12.4394 11.8166 12.3826 11.676 12.3203C11.1303 12.8472 10.5724 13.3457 10.1008 13.7393C9.84936 13.9491 9.61964 14.1314 9.42798 14.2744C9.24561 14.4105 9.07087 14.5309 8.93872 14.5967C8.61272 14.759 8.27348 14.7394 7.96704 14.6426C7.67079 14.549 7.36944 14.3731 7.07056 14.167C6.59541 13.8392 6.02032 13.3595 5.37036 12.8301L4.94751 13.6738C4.82362 13.9206 4.52242 14.0203 4.27563 13.8965C4.02918 13.7726 3.92952 13.4722 4.05298 13.2256L4.7561 11.8252L4.81665 11.7314C4.88713 11.6459 4.98562 11.5858 5.09595 11.5615C5.24302 11.5293 5.39714 11.5644 5.51489 11.6582C6.4215 12.3808 7.08634 12.9626 7.63891 13.3438C7.91065 13.5312 8.11403 13.6408 8.26782 13.6895C8.41137 13.7348 8.46809 13.7147 8.49341 13.7021C8.53705 13.6804 8.64802 13.6096 8.83032 13.4736C9.00352 13.3444 9.21793 13.1729 9.4602 12.9707C9.8451 12.6495 10.2914 12.2536 10.7405 11.8301C10.4487 11.6412 10.2085 11.4364 10.0334 11.207C9.73435 10.8151 9.64235 10.3725 9.75903 9.90723C9.86661 9.47835 10.1432 9.06341 10.4963 8.65625C10.7228 8.39515 10.9973 8.11985 11.3108 7.82812C10.9216 7.71026 10.4922 7.60316 10.0403 7.50781C8.20713 7.12109 6.13302 6.9502 5.20239 6.9502C4.92661 6.94991 4.70258 6.726 4.70239 6.4502C4.70239 6.17423 4.92649 5.95048 5.20239 5.9502ZM12.3616 8.22461C11.8976 8.63656 11.5272 8.99361 11.2522 9.31055C10.9339 9.6775 10.7802 9.94966 10.7297 10.1504C10.6885 10.3148 10.7103 10.4459 10.8284 10.6006C10.9407 10.7477 11.1448 10.9154 11.4807 11.1064C11.8945 10.684 12.2744 10.2636 12.5696 9.88379C12.7632 9.63475 12.9128 9.41384 13.011 9.22949C13.1155 9.03323 13.134 8.92913 13.134 8.89941C13.1339 8.84928 13.1138 8.76538 12.9924 8.64062C12.867 8.51169 12.6622 8.37124 12.3694 8.22852C12.3668 8.22725 12.3642 8.22587 12.3616 8.22461ZM14.6887 3.5C15.739 3.50024 16.593 4.34946 16.593 5.40039C16.5927 6.45123 15.738 7.29978 14.6877 7.2998C13.6377 7.29955 12.7837 6.45109 12.7834 5.40039C12.7835 4.34933 13.6383 3.50005 14.6887 3.5ZM14.6887 4.5C14.187 4.50004 13.7835 4.90517 13.7834 5.40039C13.7837 5.89525 14.1864 6.29955 14.6877 6.2998C15.1895 6.29979 15.593 5.89464 15.593 5.39941C15.5928 4.90456 15.1901 4.50024 14.6887 4.5Z" fill="currentColor"/>
</svg>
