<svg width="22" height="22" viewBox="0 0 22 22" fill="none" xmlns="http://www.w3.org/2000/svg">
<path fill-rule="evenodd" clip-rule="evenodd" d="M10.4136 4.43263C10.9901 3.85582 11.925 3.85593 12.5015 4.43263L12.8375 4.76955L12.9449 4.6631C13.6485 3.95908 14.7892 3.95908 15.4927 4.6631L17.3336 6.5049C18.0366 7.20878 18.0368 8.35001 17.3336 9.05373L17.2261 9.16017L17.564 9.49806C18.1396 10.0747 18.1399 11.0095 17.564 11.586C16.9877 12.1626 16.0526 12.1623 15.4761 11.586L14.2183 10.3281L10.3238 14.2256L11.5816 15.4834C12.1576 16.0601 12.1578 16.9957 11.5816 17.5723C11.0052 18.1488 10.0702 18.1486 9.49371 17.5723L9.15679 17.2344L9.05035 17.3418C8.34686 18.0455 7.20601 18.0454 6.5025 17.3418L4.66168 15.5C3.95842 14.7962 3.95852 13.655 4.66168 12.9512L4.76812 12.8438L4.43218 12.5069C3.8559 11.9302 3.85598 10.9957 4.43218 10.419C5.00869 9.84213 5.94358 9.8421 6.52007 10.419L7.77593 11.6758L11.6714 7.77834L10.4136 6.52052C9.83778 5.94389 9.83771 5.00922 10.4136 4.43263ZM5.81207 11.126C5.62614 10.9399 5.32514 10.9399 5.13921 11.126C4.95345 11.3122 4.9533 11.6137 5.13921 11.7998L10.2007 16.8652C10.3866 17.0509 10.6887 17.0511 10.8746 16.8652C11.0604 16.6792 11.0602 16.3767 10.8746 16.1904L9.26324 14.5791L7.42242 12.7373L7.42046 12.7354L5.81207 11.126ZM5.36968 13.6582C5.05663 13.9716 5.05655 14.4796 5.36968 14.793L7.20953 16.6348C7.52251 16.9476 8.03041 16.9478 8.34332 16.6348L8.44976 16.5274L5.47515 13.5508L5.36968 13.6582ZM8.48296 12.3828L9.05035 12.9512L9.61675 13.5176L13.5113 9.62013L12.3775 8.48634L8.48296 12.3828ZM11.7945 5.13966C11.6086 4.95365 11.3076 4.95372 11.1216 5.13966C10.9357 5.3259 10.9356 5.62829 11.1216 5.81447L16.1832 10.8789C16.3691 11.0646 16.6702 11.0647 16.856 10.8789C17.042 10.6928 17.0417 10.3913 16.856 10.2051L11.7945 5.13966ZM14.7857 5.37013C14.4727 5.05693 13.9649 5.05693 13.6519 5.37013L13.5445 5.47658L16.5191 8.45216L16.6265 8.34669C16.9394 8.03352 16.939 7.52532 16.6265 7.21193L14.7857 5.37013Z" fill="currentColor"/>
</svg>
