<svg width="22" height="22" viewBox="0 0 22 22" fill="none" xmlns="http://www.w3.org/2000/svg">
<path d="M5.24512 5.5293C6.20594 5.52946 6.98924 6.30539 6.98926 7.26758C6.98905 7.75653 6.78519 8.19564 6.45996 8.51074C6.50084 9.03841 6.56801 9.44018 6.65527 9.73926C6.7553 10.0818 6.86902 10.2546 6.95605 10.3369C7.06448 10.4393 7.25126 10.5021 7.74414 10.2578C8.22459 10.0196 8.78307 9.5884 9.42383 9.09668C10.04 8.62384 10.7262 8.10156 11.3994 7.7666C13.9413 6.50231 15.1675 6.30537 17.8643 5.54785C18.1298 5.4735 18.4057 5.6281 18.4805 5.89355C18.555 6.15932 18.3995 6.43609 18.1338 6.51074C15.896 7.13932 14.7459 7.36761 13.0791 8.08594C13.9787 9.32155 14.5858 10.6122 14.9697 11.6816C15.3647 12.782 15.5438 13.6975 15.5439 14.0938C15.5439 14.2972 15.4965 14.6292 15.4395 14.9697C15.3799 15.3254 15.3008 15.738 15.2227 16.127C15.1588 16.4448 15.0942 16.7499 15.041 16.999H15.666C15.9421 16.9991 16.166 17.2229 16.166 17.499C16.1656 17.7747 15.9418 17.9989 15.666 17.999H14.4219C14.2704 17.9989 14.1261 17.9297 14.0312 17.8115C13.9365 17.6932 13.9007 17.5376 13.9336 17.3896V17.3877C13.9339 17.3865 13.935 17.3842 13.9355 17.3818C13.9367 17.3768 13.9383 17.369 13.9404 17.3594C13.9449 17.3392 13.9516 17.3086 13.96 17.2705C13.9768 17.1938 14.0013 17.0826 14.0303 16.9482C14.0883 16.679 14.1651 16.3133 14.2422 15.9297C14.3194 15.5454 14.3961 15.145 14.4531 14.8047C14.5126 14.4496 14.5439 14.2001 14.5439 14.0938C14.5438 13.8702 14.4105 13.0841 14.0283 12.0195C13.6523 10.9722 13.0517 9.70371 12.1553 8.51465C12.1544 8.51353 12.1541 8.51189 12.1533 8.51074C12.0531 8.5592 11.9497 8.60893 11.8447 8.66113C11.6633 8.75142 11.4776 8.86066 11.2891 8.98145C11.5873 9.71306 11.9785 10.6753 12.2217 11.6084C12.3634 12.1523 12.4626 12.7133 12.457 13.2344C12.4514 13.7533 12.3414 14.2795 12.0205 14.7051C11.6288 15.2245 10.9106 16.017 10.3066 16.6641C10.1977 16.7808 10.0898 16.8926 9.98926 16.999H10.0664C10.3424 16.9992 10.5664 17.223 10.5664 17.499C10.566 17.7747 10.3421 17.9988 10.0664 17.999H8.82129C8.62046 17.9988 8.43844 17.8774 8.36035 17.6924C8.28259 17.5073 8.32387 17.2932 8.46387 17.1494L8.46484 17.1484C8.4657 17.1476 8.46714 17.1453 8.46875 17.1436C8.47249 17.1397 8.47901 17.1335 8.48633 17.126C8.50123 17.1106 8.5236 17.0877 8.55176 17.0586C8.60876 16.9997 8.6918 16.914 8.79297 16.8086C8.99593 16.5971 9.27497 16.3041 9.57617 15.9814C10.185 15.3292 10.8665 14.5735 11.2217 14.1025C11.3672 13.9095 11.4527 13.6228 11.457 13.2236C11.4613 12.8261 11.3843 12.3607 11.2539 11.8604C11.0495 11.076 10.7287 10.2686 10.4473 9.5752C10.3107 9.67778 10.1714 9.78287 10.0322 9.88965C9.42431 10.3562 8.77689 10.8615 8.18848 11.1533C7.6129 11.4386 6.86561 11.6266 6.26953 11.0635C6.00428 10.8127 5.82187 10.4529 5.69531 10.0195C5.60983 9.7266 5.54673 9.38173 5.50098 8.98242C5.41732 8.99471 5.33214 9.00487 5.24512 9.00488C4.28448 9.00481 3.50046 8.22945 3.5 7.26758C3.49998 6.30531 4.28419 5.52933 5.24512 5.5293ZM5.24512 6.5293C4.8316 6.52934 4.49999 6.86249 4.5 7.26758C4.50046 7.6723 4.83187 8.00483 5.24512 8.00488C5.65831 8.00477 5.98885 7.67228 5.98926 7.26758C5.98925 6.86254 5.65856 6.52946 5.24512 6.5293ZM10.377 4C11.3379 4.00002 12.1211 4.776 12.1211 5.73828C12.1207 6.70025 11.3377 7.47561 10.377 7.47559C9.41652 7.47525 8.63324 6.70002 8.63281 5.73828C8.63279 4.77617 9.41624 4.00028 10.377 4ZM10.377 5C9.96364 5.00028 9.6328 5.33334 9.63281 5.73828C9.63324 6.14287 9.96392 6.47526 10.377 6.47559C10.7903 6.47559 11.1207 6.14308 11.1211 5.73828C11.1211 5.33315 10.7905 5.00001 10.377 5Z" fill="currentColor"/>
</svg>
