<svg width="22" height="22" viewBox="0 0 22 22" fill="none" xmlns="http://www.w3.org/2000/svg">
<path d="M8.33814 14.9905C11.4946 14.8151 14 12.2003 14 9C14 5.68629 11.3137 3 8 3C4.68629 3 2 5.68629 2 9C2 10.1807 2.34094 11.2817 2.92989 12.21L2.50586 13.482L2.50518 13.4839C2.34278 13.9711 2.26154 14.2149 2.31938 14.3771C2.36979 14.5184 2.48169 14.6299 2.62305 14.6803C2.78472 14.7379 3.02675 14.6573 3.51069 14.4959L3.51758 14.4939L4.79004 14.0698C5.7183 14.6588 6.81935 14.9998 8.00006 14.9998C8.11352 14.9998 8.22624 14.9967 8.33814 14.9905ZM8.33814 14.9905C9.15907 17.3259 11.3841 19.0002 14.0001 19.0002C15.1808 19.0002 16.2817 18.6588 17.2099 18.0698L18.482 18.4939L18.4845 18.4944C18.9717 18.6567 19.2158 18.7381 19.378 18.6803C19.5194 18.6299 19.6299 18.5184 19.6803 18.3771C19.7382 18.2146 19.6572 17.9706 19.4943 17.4821L19.0703 16.21L19.2123 15.9746C19.7138 15.0979 19.9995 14.0823 19.9995 13C19.9995 9.6863 17.3137 7 14 7L13.7754 7.00414L13.6621 7.00967" stroke="currentColor" stroke-linecap="round" stroke-linejoin="round"/>
</svg>
