<svg width="47" height="47" viewBox="0 0 47 47" fill="none" xmlns="http://www.w3.org/2000/svg">
<path d="M14.517 4.08752L4.08751 14.517C1.47091 17.1336 0 20.6815 0 24.3847V46.5149H22.1302C25.8334 46.5149 29.3813 45.044 31.9979 42.4274L37.2163 37.209V46.5149H46.5223V0H24.392C20.6889 0 17.141 1.47091 14.5244 4.08752H14.517ZM35.5606 35.568C34.5111 36.6176 33.0771 37.209 31.5914 37.209H9.29855V14.9161C9.29855 13.4304 9.88987 11.9965 10.9395 10.9469C11.9891 9.89726 13.423 9.30594 14.9087 9.30594H37.2016V31.5988C37.2016 33.0919 36.6102 34.5184 35.5532 35.5754L35.5606 35.568Z" fill="#E0FF00"/>
</svg>
