<svg width="47" height="47" viewBox="0 0 47 47" fill="none" xmlns="http://www.w3.org/2000/svg">
<path d="M9.30594 27.9104L14.5244 22.692C17.141 20.0754 20.6889 18.6045 24.392 18.6045H46.5149V27.9104H14.9161C13.4304 27.9104 11.9965 28.5017 10.9469 29.5513C9.89726 30.6009 9.30594 32.0349 9.30594 33.5206V46.5149H0V24.3847C0 20.6815 1.47091 17.1336 4.08752 14.517L14.517 4.08752C17.1336 1.47091 20.6815 0 24.3847 0H46.5149V9.30594H14.9161C13.4304 9.30594 11.9965 9.89726 10.9469 10.9469C9.89726 11.9965 9.30594 13.4304 9.30594 14.9161V27.9104Z" fill="#E0FF00"/>
</svg>
