<svg width="22" height="22" viewBox="0 0 22 22" fill="none" xmlns="http://www.w3.org/2000/svg">
<path d="M4 8.33333H18M4 8.33333V16.1557C4 17.1514 4 17.6489 4.19074 18.0292C4.35852 18.3637 4.62604 18.636 4.95532 18.8064C5.3293 19 5.81912 19 6.7973 19H15.2027C16.1809 19 16.67 19 17.044 18.8064C17.3733 18.636 17.6417 18.3637 17.8094 18.0292C18 17.6493 18 17.1524 18 16.1587V8.33333M4 8.33333V7.6224C4 6.62675 4 6.12855 4.19074 5.74826C4.35852 5.41375 4.62604 5.14199 4.95532 4.97154C5.32967 4.77778 5.82008 4.77778 6.80017 4.77778H7.5M18 8.33333V7.61948C18 6.62577 18 6.12818 17.8094 5.74826C17.6417 5.41375 17.3733 5.14199 17.044 4.97154C16.6696 4.77778 16.1803 4.77778 15.2002 4.77778H14.5M14.5 3V4.77778M14.5 4.77778H7.5M7.5 3V4.77778" stroke="currentColor" stroke-linecap="round" stroke-linejoin="round"/>
</svg>
