<svg width="22" height="22" viewBox="0 0 22 22" fill="none" xmlns="http://www.w3.org/2000/svg">
<path d="M4 13.0002V14.44C4 15.3361 4 15.7838 4.16954 16.1261C4.31868 16.4271 4.55647 16.6724 4.84917 16.8258C5.18159 17 5.61698 17 6.48646 17H18M4 13.0002V5M4 13.0002L6.99705 10.4313L6.99953 10.4292C7.5417 9.96448 7.81331 9.73167 8.10782 9.63711C8.45574 9.5254 8.8305 9.54307 9.16715 9.68672C9.45255 9.8085 9.7028 10.0659 10.2033 10.5807L10.2083 10.5859C10.7166 11.1087 10.9714 11.3708 11.2614 11.4923C11.6045 11.6361 11.9865 11.6484 12.3382 11.5285C12.6364 11.4267 12.9087 11.182 13.4532 10.692L17.9998 6.6" stroke="currentColor" stroke-linecap="round" stroke-linejoin="round"/>
</svg>
