<svg width="22" height="22" viewBox="0 0 22 22" fill="none" xmlns="http://www.w3.org/2000/svg">
<path d="M10.9999 14.2796L7.75584 11.0364L8.40483 10.3764L10.5416 12.5132V4.58398H11.4583V12.5132L13.5941 10.3773L14.244 11.0364L10.9999 14.2796ZM6.06459 17.4173C5.64231 17.4173 5.29 17.2762 5.00767 16.9938C4.72534 16.7115 4.58386 16.3589 4.58325 15.936V13.7149H5.49992V15.936C5.49992 16.0772 5.55859 16.2067 5.67592 16.3247C5.79325 16.4426 5.9225 16.5013 6.06367 16.5007H15.9362C16.0767 16.5007 16.206 16.442 16.3239 16.3247C16.4419 16.2073 16.5005 16.0778 16.4999 15.936V13.7149H17.4166V15.936C17.4166 16.3583 17.2754 16.7106 16.9931 16.9929C16.7108 17.2752 16.3581 17.4167 15.9353 17.4173H6.06459Z" fill="black"/>
</svg>
