<svg width="22" height="22" viewBox="0 0 22 22" fill="none" xmlns="http://www.w3.org/2000/svg">
<path d="M11.1594 7.76097L5 13.9203V17L8.07972 17L14.2391 10.8406M11.1594 7.76097L13.3681 5.55234L13.3694 5.55103C13.6734 5.247 13.8257 5.09472 14.0013 5.03768C14.1559 4.98744 14.3225 4.98744 14.4771 5.03768C14.6525 5.09468 14.8047 5.24679 15.1083 5.55039L16.4478 6.88989C16.7527 7.19479 16.9052 7.34731 16.9623 7.5231C17.0126 7.67774 17.0126 7.84431 16.9623 7.99894C16.9052 8.17461 16.7529 8.3269 16.4485 8.63136L16.4478 8.63202L14.2391 10.8406M11.1594 7.76097L14.2391 10.8406" stroke="currentColor" stroke-linecap="round" stroke-linejoin="round"/>
</svg>
