<svg width="22" height="22" viewBox="0 0 22 22" fill="none" xmlns="http://www.w3.org/2000/svg">
<path d="M9 3.5C9.27614 3.5 9.5 3.72386 9.5 4C9.5 4.27614 9.27614 4.5 9 4.5H5.20703L17.5 16.793V13C17.5 12.7239 17.7239 12.5 18 12.5C18.2761 12.5 18.5 12.7239 18.5 13V18C18.5 18.2761 18.2761 18.5 18 18.5H13C12.7239 18.5 12.5 18.2761 12.5 18C12.5 17.7239 12.7239 17.5 13 17.5H16.793L4.5 5.20703V9C4.5 9.27614 4.27614 9.5 4 9.5C3.72386 9.5 3.5 9.27614 3.5 9V4C3.5 3.72386 3.72386 3.5 4 3.5H9Z" fill="currentColor"/>
</svg>
