<svg width="24" height="24" viewBox="0 0 24 24" fill="none" xmlns="http://www.w3.org/2000/svg">
<path d="M9.30726 2H6.66667C5.95942 2 5.28115 2.26339 4.78105 2.73223C4.28095 3.20107 4 3.83696 4 4.5V19.5C4 20.163 4.28095 20.7989 4.78105 21.2678C5.28115 21.7366 5.95942 22 6.66667 22H17.3333C18.0406 22 18.7189 21.7366 19.219 21.2678C19.719 20.7989 20 20.163 20 19.5V12M9.30726 2C10.7804 2 12 3.11889 12 4.5V7C12 7.66304 12.281 8.29893 12.781 8.76777C13.2811 9.23661 13.9594 9.5 14.6667 9.5H17.3333C18.0406 9.5 18.7189 9.76339 19.219 10.2322C19.719 10.7011 20 11.337 20 12M9.30726 2C13.6806 2 20 7.95556 20 12" stroke="currentColor"  stroke-width="1.375" stroke-linecap="round" stroke-linejoin="round"/>
</svg>
