<svg width="22" height="22" viewBox="0 0 22 22" fill="none" xmlns="http://www.w3.org/2000/svg">
<path d="M16 7.17238C16 6.76203 15.9997 6.55671 15.9248 6.39998C15.8589 6.26211 15.7541 6.1501 15.6248 6.07986C15.4777 6 15.2848 6 14.8997 6H6.09973C5.7147 6 5.52237 6 5.37531 6.07986C5.24594 6.1501 5.14085 6.26211 5.07493 6.39998C5 6.55671 5 6.76203 5 7.17238V7.71257C5 7.89178 5 7.98145 5.019 8.06577C5.03584 8.14053 5.06368 8.21195 5.10138 8.2775C5.14388 8.35142 5.20344 8.41489 5.32227 8.54153L8.8029 12.251C8.9218 12.3777 8.98093 12.4407 9.02344 12.5146C9.06114 12.5802 9.08936 12.6519 9.1062 12.7266C9.125 12.8101 9.125 12.8987 9.125 13.0743V16.5589C9.125 17.1869 9.125 17.5012 9.24912 17.6903C9.35751 17.8554 9.52472 17.9656 9.71179 17.9951C9.92603 18.0288 10.1897 17.8885 10.7169 17.6076L11.2669 17.3145C11.4876 17.1969 11.5977 17.1379 11.6783 17.0502C11.7496 16.9726 11.8042 16.8794 11.8374 16.7767C11.875 16.6606 11.875 16.5288 11.875 16.2658V13.0797C11.875 12.9005 11.875 12.8109 11.894 12.7266C11.9108 12.6519 11.9387 12.5802 11.9764 12.5146C12.0186 12.4412 12.0776 12.3783 12.1949 12.2533L12.1973 12.251L15.6779 8.54153C15.7968 8.41481 15.8559 8.35145 15.8984 8.2775C15.9361 8.21195 15.9644 8.14053 15.9812 8.06577C16 7.98231 16 7.8936 16 7.71802V7.17238Z" stroke="currentColor" stroke-linecap="round" stroke-linejoin="round"/>
</svg>
