<svg width="22" height="22" viewBox="0 0 22 22" fill="none" xmlns="http://www.w3.org/2000/svg">
<path d="M4.21541 4L17.9093 18M14.9138 15.1614C13.7561 15.7989 12.4477 16.2499 11.0624 16.2499C8.04058 16.2499 5.38482 14.1044 3.86186 12.5565C3.45985 12.1479 3.25888 11.9436 3.13094 11.5426C3.0397 11.2566 3.03967 10.7432 3.13094 10.4573C3.25892 10.0563 3.46031 9.85152 3.86311 9.44221C4.63073 8.66218 5.68589 7.73064 6.93048 6.99841M17.4814 13.3043C17.7664 13.048 18.0275 12.7958 18.2618 12.5577L18.2642 12.5551C18.6653 12.1475 18.8664 11.9431 18.9941 11.543C19.0854 11.2571 19.0852 10.7435 18.994 10.4575C18.8661 10.0566 18.6649 9.85178 18.2631 9.44347C16.7402 7.89557 14.0841 5.75 11.0624 5.75C10.7735 5.75 10.488 5.76961 10.2065 5.80642M12.1946 12.3125C11.8929 12.5848 11.4965 12.75 11.0624 12.75C10.117 12.75 9.35062 11.9665 9.35062 11C9.35062 10.5279 9.53345 10.0997 9.83066 9.78491" stroke="#82888E"  stroke-linecap="round" stroke-linejoin="round"/>
</svg>
