<svg width="22" height="22" viewBox="0 0 22 22" fill="none" xmlns="http://www.w3.org/2000/svg">
<path d="M4.77778 6.28571L9.52816 9.90964L9.52975 9.91096C10.0572 10.3017 10.3211 10.4972 10.6101 10.5727C10.8656 10.6395 11.1342 10.6395 11.3896 10.5727C11.6789 10.4972 11.9436 10.3011 12.472 9.90964C12.472 9.90964 15.519 7.54752 17.2222 6.28571M4 13.9859V8.01444C4 7.13436 4 6.69399 4.16955 6.35784C4.31868 6.06216 4.55648 5.82193 4.84918 5.67128C5.18193 5.5 5.61785 5.5 6.48904 5.5H15.5113C16.3825 5.5 16.8174 5.5 17.1502 5.67128C17.4429 5.82193 17.6815 6.06216 17.8306 6.35784C18 6.69366 18 7.1335 18 8.01186V13.9885C18 14.8669 18 15.3061 17.8306 15.6419C17.6815 15.9376 17.4429 16.1782 17.1502 16.3289C16.8178 16.5 16.383 16.5 15.5135 16.5H6.48649C5.617 16.5 5.1816 16.5 4.84918 16.3289C4.55648 16.1782 4.31868 15.9376 4.16955 15.6419C4 15.3058 4 14.866 4 13.9859Z" stroke="currentColor" stroke-linecap="round" stroke-linejoin="round"/>
</svg>
