<svg width="22" height="22" viewBox="0 0 22 22" fill="none" xmlns="http://www.w3.org/2000/svg">
<path d="M12.875 6.66663V15.3331C12.875 15.6429 12.875 15.7978 12.899 15.9266C12.9977 16.4555 13.385 16.8692 13.8809 16.9744C14.0016 17 14.1468 17 14.4372 17C14.7276 17 14.8734 17 14.9941 16.9744C15.49 16.8692 15.8776 16.4555 15.9762 15.9266C16 15.7989 16 15.6456 16 15.3413V6.65848C16 6.35414 16 6.20056 15.9762 6.0729C15.8776 5.54399 15.4897 5.13083 14.9939 5.02562C14.8731 5 14.7279 5 14.4375 5C14.1471 5 14.0016 5 13.8809 5.02562C13.385 5.13083 12.9977 5.54399 12.899 6.0729C12.875 6.20169 12.875 6.35687 12.875 6.66663Z" stroke="currentColor" stroke-linecap="round" stroke-linejoin="round"/>
<path d="M6 6.66663V15.3331C6 15.6429 6 15.7978 6.02402 15.9266C6.12265 16.4555 6.51 16.8692 7.00586 16.9744C7.12661 17 7.27181 17 7.56222 17C7.85263 17 7.99839 17 8.11914 16.9744C8.615 16.8692 9.00256 16.4555 9.1012 15.9266C9.125 15.7989 9.125 15.6456 9.125 15.3413V6.65848C9.125 6.35414 9.125 6.20056 9.1012 6.0729C9.00256 5.54399 8.61473 5.13083 8.11886 5.02562C7.99811 5 7.85291 5 7.5625 5C7.27209 5 7.12661 5 7.00586 5.02562C6.51 5.13083 6.12265 5.54399 6.02402 6.0729C6 6.20169 6 6.35687 6 6.66663Z" stroke="currentColor" stroke-linecap="round" stroke-linejoin="round"/>
</svg>
