<svg width="22" height="22" viewBox="0 0 22 22" fill="none" xmlns="http://www.w3.org/2000/svg">
<path d="M9.05734 4.97784C8.82111 4.38726 8.24914 4 7.61308 4H5.47365C4.65977 4 4 4.65963 4 5.47353C4 12.3916 9.60824 18 16.5262 18C17.34 18 17.9996 17.3402 17.9996 16.5263L18 14.3864C18 13.7503 17.6129 13.1785 17.0223 12.9422L14.9718 12.1223C14.4413 11.9101 13.8373 12.0056 13.3984 12.3714L12.8692 12.8128C12.2511 13.3278 11.3417 13.2868 10.7729 12.718L9.2827 11.2264C8.71382 10.6575 8.67178 9.74882 9.18682 9.13076L9.62811 8.60157C9.99388 8.16264 10.0902 7.55846 9.87803 7.02796L9.05734 4.97784Z" stroke="currentColor" stroke-linecap="round" stroke-linejoin="round"/>
</svg>
