<svg width="22" height="22" viewBox="0 0 22 22" fill="none" xmlns="http://www.w3.org/2000/svg">
<path d="M5 9.35154C5 13.4525 8.63814 16.8439 10.2485 18.1441C10.4789 18.3302 10.5956 18.4244 10.7675 18.4721C10.9014 18.5093 11.0984 18.5093 11.2323 18.4721C11.4046 18.4243 11.5204 18.3311 11.7517 18.1443C13.362 16.844 17 13.4529 17 9.35192C17 7.79994 16.3679 6.31135 15.2427 5.21393C14.1174 4.11652 12.5914 3.5 11.0001 3.5C9.4088 3.5 7.88259 4.11661 6.75737 5.21403C5.63214 6.31144 5 7.79957 5 9.35154Z" stroke="currentColor" stroke-linecap="round" stroke-linejoin="round"/>
<path d="M9.28574 8.5715C9.28574 9.50514 10.0533 10.262 11 10.262C11.9468 10.262 12.7143 9.50514 12.7143 8.5715C12.7143 7.63787 11.9468 6.881 11 6.881C10.0533 6.881 9.28574 7.63787 9.28574 8.5715Z" stroke="currentColor" stroke-linecap="round" stroke-linejoin="round"/>
</svg>
