<svg width="22" height="22" viewBox="0 0 22 22" fill="none" xmlns="http://www.w3.org/2000/svg">
<path d="M5 15.366V6.63471C5 5.91473 5 5.55435 5.16008 5.34132C5.2998 5.1554 5.51516 5.03333 5.75424 5.00415C6.02808 4.97072 6.36394 5.14025 7.03469 5.47882L15.6836 9.84445L15.6867 9.84576C16.428 10.2199 16.7988 10.4071 16.9204 10.6566C17.0265 10.8742 17.0265 11.1254 16.9204 11.343C16.7986 11.5928 16.4269 11.7807 15.6836 12.156L7.03469 16.5216C6.36346 16.8604 6.02818 17.0293 5.75424 16.9958C5.51516 16.9667 5.2998 16.8446 5.16008 16.6587C5 16.4457 5 16.0859 5 15.366Z" stroke="currentColor" stroke-linecap="round" stroke-linejoin="round"/>
</svg>
