<svg width="22" height="22" viewBox="0 0 22 22" fill="none" xmlns="http://www.w3.org/2000/svg">
<path d="M10.749 5C13.9243 5 16.499 7.57449 16.499 10.75L16.4912 11.0459C16.4257 12.3377 15.9317 13.5153 15.1514 14.4443L16.8525 16.1455C17.0476 16.3407 17.0474 16.6573 16.8525 16.8525C16.6573 17.0478 16.3408 17.0477 16.1455 16.8525L14.4453 15.1523C13.4457 15.9926 12.1569 16.5 10.749 16.5L10.4531 16.4922C7.51359 16.343 5.15696 13.9856 5.00781 11.0459L5 10.75C5 7.57463 7.57389 5.00022 10.749 5ZM10.749 6C8.12623 6.00022 6 8.12686 6 10.75C6.00013 13.373 8.12631 15.4998 10.749 15.5C13.3719 15.5 15.4989 13.3732 15.499 10.75C15.499 8.12672 13.372 6 10.749 6Z" fill="currentColor"/>
</svg>
