<svg width="22" height="22" viewBox="0 0 22 22" fill="none" xmlns="http://www.w3.org/2000/svg">
<path d="M13.0011 8.99889L10.0005 11.9992M19.2903 2.02927C19.3852 1.99652 19.4875 1.99113 19.5853 2.01372C19.6831 2.0363 19.7726 2.08595 19.8435 2.15699C19.9145 2.22803 19.964 2.31759 19.9865 2.41544C20.0089 2.51329 20.0034 2.61548 19.9705 2.71033L14.0453 19.6418C14.0098 19.743 13.9448 19.8313 13.8586 19.8951C13.7723 19.9588 13.6689 19.9953 13.5618 19.9996C13.4546 20.0039 13.3486 19.9759 13.2576 19.9192C13.1665 19.8626 13.0946 19.7799 13.0511 19.6818L9.83145 12.4392C9.77728 12.3187 9.68085 12.2223 9.56039 12.1682L2.31695 8.94788C2.21922 8.90425 2.13683 8.83233 2.08041 8.7414C2.02398 8.65047 1.99613 8.54471 2.00043 8.43778C2.00474 8.33086 2.04102 8.22768 2.10457 8.14158C2.16812 8.05549 2.25604 7.99042 2.35696 7.95479L19.2903 2.02927Z" stroke="currentColor" stroke-width="1.375" stroke-linecap="round" stroke-linejoin="round"/>
</svg>
