<svg width="22" height="22" viewBox="0 0 22 22" fill="none" xmlns="http://www.w3.org/2000/svg">
<path d="M16.4296 9.04174L16.1914 8.91208C16.1545 8.89194 16.1363 8.88184 16.1184 8.87137C15.9408 8.76726 15.7912 8.62342 15.6819 8.45132C15.6709 8.43401 15.6606 8.41585 15.6394 8.37996C15.6183 8.34411 15.6075 8.32595 15.5977 8.30797C15.4997 8.12893 15.4467 7.9294 15.4436 7.72632C15.4432 7.70591 15.4433 7.68505 15.444 7.64358L15.4487 7.37293C15.4561 6.93982 15.4599 6.7226 15.3977 6.52765C15.3424 6.35449 15.25 6.19499 15.1266 6.05964C14.9871 5.90664 14.794 5.79749 14.4075 5.57947L14.0864 5.39836C13.7009 5.18095 13.5081 5.0722 13.3034 5.03074C13.1223 4.99406 12.9355 4.99576 12.7551 5.0354C12.5515 5.08014 12.3611 5.19172 11.9805 5.41476L11.9783 5.41577L11.7482 5.5506C11.7119 5.57192 11.6935 5.58267 11.6752 5.59259C11.4943 5.69106 11.2923 5.7455 11.0853 5.752C11.0645 5.75266 11.0433 5.75266 11.0008 5.75266C10.9587 5.75266 10.9366 5.75266 10.9157 5.752C10.7084 5.74548 10.5059 5.69073 10.3247 5.59186C10.3064 5.58189 10.2884 5.57106 10.2519 5.54964L10.0204 5.41359C9.63721 5.18844 9.44533 5.0757 9.24058 5.03074C9.05944 4.99096 8.87195 4.98986 8.69023 5.02701C8.48504 5.06896 8.29218 5.17851 7.90647 5.39762L7.90475 5.39836L7.58765 5.5785L7.58414 5.5806C7.20189 5.79773 7.0103 5.90656 6.87199 6.05893C6.74924 6.19415 6.6575 6.35339 6.60259 6.5261C6.54052 6.72131 6.54382 6.939 6.55131 7.37415L6.55595 7.64441C6.55665 7.68534 6.55787 7.70568 6.55757 7.72581C6.55449 7.9293 6.5008 8.12923 6.40253 8.30859C6.39282 8.32633 6.38235 8.34407 6.36144 8.3795C6.34051 8.41495 6.33038 8.43259 6.31953 8.4497C6.20981 8.62271 6.05946 8.76739 5.88076 8.87168C5.86309 8.882 5.84446 8.89192 5.80786 8.91177L5.57275 9.03929C5.18158 9.25145 4.98604 9.35763 4.84376 9.50872C4.71788 9.64239 4.6228 9.80094 4.56475 9.97362C4.49914 10.1688 4.4992 10.3877 4.50021 10.8254L4.50104 11.1832C4.50205 11.6179 4.50344 11.8352 4.5692 12.0291C4.62737 12.2006 4.72176 12.3582 4.84693 12.491C4.98841 12.6412 5.18201 12.7467 5.57021 12.9581L5.80322 13.085C5.84288 13.1066 5.86283 13.1172 5.88196 13.1285C6.05903 13.2329 6.20821 13.3772 6.31699 13.5492C6.32874 13.5678 6.34002 13.587 6.36258 13.6256C6.38486 13.6637 6.39626 13.6828 6.40656 13.7019C6.50194 13.8786 6.553 14.075 6.55648 14.2748C6.55686 14.2964 6.55654 14.3182 6.55578 14.3621L6.55131 14.6215C6.54377 15.0581 6.54049 15.2767 6.60293 15.4724C6.65816 15.6456 6.75048 15.8051 6.87389 15.9404C7.01339 16.0934 7.20677 16.2025 7.59336 16.4206L7.91439 16.6016C8.2999 16.819 8.49258 16.9277 8.69724 16.9691C8.8783 17.0058 9.06526 17.0044 9.24566 16.9647C9.44957 16.9199 9.64062 16.808 10.0223 16.5843L10.2524 16.4495C10.2888 16.4281 10.3072 16.4174 10.3254 16.4075C10.5064 16.309 10.7082 16.2543 10.9151 16.2478C10.936 16.2472 10.9572 16.2472 10.9996 16.2472C11.0421 16.2472 11.0633 16.2472 11.0842 16.2478C11.2916 16.2543 11.4946 16.3092 11.6759 16.4081C11.6918 16.4168 11.7078 16.4262 11.7358 16.4427L11.9804 16.5864C12.3637 16.8116 12.5551 16.924 12.7599 16.969C12.941 17.0088 13.1287 17.0104 13.3104 16.9732C13.5155 16.9313 13.7088 16.8215 14.0943 16.6025L14.4161 16.4197C14.7986 16.2024 14.9904 16.0935 15.1288 15.9411C15.2515 15.8058 15.3434 15.6467 15.3983 15.474C15.4599 15.2802 15.4562 15.0642 15.4488 14.6353L15.444 14.3556C15.4433 14.3147 15.4432 14.2943 15.4435 14.2742C15.4466 14.0707 15.4994 13.8706 15.5977 13.6912C15.6074 13.6735 15.6179 13.6557 15.6388 13.6203C15.6597 13.5849 15.6705 13.5672 15.6814 13.5501C15.7911 13.3771 15.9416 13.2323 16.1203 13.128C16.1378 13.1178 16.1557 13.1081 16.1915 13.0887L16.1927 13.0881L16.4278 12.9606C16.819 12.7484 17.0149 12.6421 17.1572 12.491C17.2831 12.3574 17.378 12.1991 17.4361 12.0264C17.5013 11.8323 17.5008 11.6147 17.4998 11.1821L17.4989 10.8167C17.4979 10.3819 17.4974 10.1647 17.4316 9.97082C17.3734 9.79931 17.2785 9.64168 17.1533 9.50882C17.012 9.35879 16.8181 9.25324 16.4307 9.04228L16.4296 9.04174Z" stroke="currentColor" stroke-linecap="round" stroke-linejoin="round"/>
<path d="M8.39919 11C8.39919 12.406 9.5637 13.5458 11.0002 13.5458C12.4367 13.5458 13.6012 12.406 13.6012 11C13.6012 9.59409 12.4367 8.45433 11.0002 8.45433C9.5637 8.45433 8.39919 9.59409 8.39919 11Z" stroke="currentColor" stroke-linecap="round" stroke-linejoin="round"/>
</svg>
