<svg width="22" height="22" viewBox="0 0 22 22" fill="none" xmlns="http://www.w3.org/2000/svg">
<path d="M3.79936 12.6306C5.32234 14.2522 7.97838 16.5 11.0002 16.5C14.022 16.5 16.6775 14.2522 18.2005 12.6306C18.6021 12.203 18.8037 11.9884 18.9316 11.5685C19.0228 11.2689 19.0228 10.7312 18.9316 10.4316C18.8037 10.0117 18.6022 9.79709 18.2005 9.36938C16.6775 7.74776 14.022 5.5 11.0002 5.5C7.97838 5.5 5.32234 7.74776 3.79936 9.36938C3.39739 9.79739 3.19638 10.0115 3.06844 10.4316C2.97719 10.7312 2.97719 11.2689 3.06844 11.5685C3.19638 11.9886 3.39739 12.2026 3.79936 12.6306Z" stroke="#82888E" stroke-linecap="round" stroke-linejoin="round"/>
<path d="M9.28827 11C9.28827 12.0126 10.0546 12.8334 11 12.8334C11.9454 12.8334 12.7118 12.0126 12.7118 11C12.7118 9.98751 11.9454 9.16669 11 9.16669C10.0546 9.16669 9.28827 9.98751 9.28827 11Z" stroke="#82888E" stroke-linecap="round" stroke-linejoin="round"/>
</svg>
