<svg width="22" height="22" viewBox="0 0 22 22" fill="none" xmlns="http://www.w3.org/2000/svg">
<path d="M12.5 9.44444V14.8889M9.5 9.44444V14.8889M6.5 6.33333V15.5111C6.5 16.3823 6.5 16.8176 6.66349 17.1504C6.8073 17.443 7.0366 17.6815 7.31885 17.8306C7.6394 18 8.05925 18 8.89768 18H13.1023C13.9408 18 14.36 18 14.6805 17.8306C14.9628 17.6815 15.1929 17.443 15.3367 17.1504C15.5 16.8179 15.5 16.383 15.5 15.5135V6.33333M6.5 6.33333H8M6.5 6.33333H5M8 6.33333H14M8 6.33333C8 5.60854 8 5.24632 8.11418 4.96045C8.26642 4.57929 8.55824 4.27629 8.92578 4.11841C9.20144 4 9.55109 4 10.25 4H11.75C12.4489 4 12.7984 4 13.074 4.11841C13.4416 4.27629 13.7335 4.57929 13.8857 4.96045C13.9999 5.24631 14 5.60854 14 6.33333M14 6.33333H15.5M15.5 6.33333H17" stroke="currentColor"  stroke-linecap="round" stroke-linejoin="round"/>
</svg>
