<svg width="22" height="22" viewBox="0 0 22 22" fill="none" xmlns="http://www.w3.org/2000/svg">
<g clip-path="url(#clip0_1_176)">
<path fill-rule="evenodd" clip-rule="evenodd" d="M17.0925 5.11828C18.167 4.08959 19.8824 4.10553 20.9243 5.16455C21.9662 6.22406 21.9309 7.91717 20.8562 8.94618C20.814 8.9865 20.7658 9.01605 20.7154 9.03895C20.8912 9.48491 21.0201 9.95814 21.0897 10.4537L21.13 10.74C21.5833 13.9684 19.334 16.9535 16.1057 17.4074L15.7653 17.4553C12.7244 17.8826 9.91257 15.7635 9.48497 12.7227C9.32879 11.6126 8.30203 10.8389 7.1919 10.9948L5.69489 11.2052C4.37294 11.3909 3.02823 11.0895 1.91213 10.3572L0.896345 9.69028C-0.260103 8.93092 0.140487 7.14414 1.51037 6.95121L14.0957 5.18247C15.086 5.04337 16.054 5.14765 16.9406 5.44829C16.947 5.32759 16.9977 5.20903 17.0925 5.11828ZM1.64955 7.94148C1.19315 8.00603 1.06007 8.6017 1.44556 8.85474L2.46024 9.52078C3.37343 10.12 4.47407 10.3668 5.55572 10.2149L7.05272 10.0045C8.65803 9.77904 10.1464 10.8553 10.4496 12.4294L10.5137 12.8148C10.97 15.1838 13.21 16.8045 15.6261 16.465L15.9665 16.4172C18.6479 16.0401 20.5161 13.5606 20.1397 10.8792L20.0995 10.5929C19.7004 7.75302 17.0747 5.77392 14.2348 6.17273L1.64955 7.94148ZM17.9554 10.985C18.2286 10.9469 18.4817 11.1373 18.5202 11.4105C18.649 12.327 18.2908 13.1051 17.7379 13.6614C17.1933 14.2092 16.446 14.5598 15.7198 14.662C14.9934 14.764 14.1779 14.6332 13.5032 14.2566C12.8184 13.8742 12.2606 13.2249 12.1318 12.3083C12.0934 12.0349 12.2839 11.782 12.5573 11.7436C12.8306 11.7054 13.0836 11.8958 13.122 12.1692C13.1998 12.7224 13.5284 13.1251 13.9909 13.3833C14.4635 13.6471 15.0568 13.7453 15.5807 13.6717C16.1044 13.598 16.6479 13.3401 17.0294 12.9563C17.4026 12.5806 17.6076 12.1028 17.5299 11.5497C17.4915 11.2763 17.682 11.0234 17.9554 10.985ZM20.2021 5.85676C19.5565 5.20045 18.4886 5.18007 17.8072 5.81859C18.8143 6.34202 19.6695 7.13544 20.2627 8.11937C20.835 7.46289 20.8155 6.4806 20.2021 5.85676Z" fill="currentColor"/>
</g>
<defs>
<clipPath id="clip0_1_176">
<rect width="22" height="22" fill="white"/>
</clipPath>
</defs>
</svg>
