<svg width="22" height="22" viewBox="0 0 22 22" fill="none" xmlns="http://www.w3.org/2000/svg">
<path d="M11 8.7998V18.9998M11 8.7998C11 7.11965 11 6.27992 11.327 5.63818C11.6146 5.0737 12.0732 4.6146 12.6377 4.32698C13.2794 4 14.1196 4 15.7998 4H18.3998C18.9599 4 19.2401 4 19.454 4.10899C19.6422 4.20487 19.7948 4.35774 19.8906 4.5459C19.9996 4.75981 20 5.04004 20 5.6001V14.4001C20 14.9601 19.9996 15.2398 19.8906 15.4537C19.7948 15.6419 19.6425 15.7952 19.4543 15.8911C19.2406 16 18.961 16 18.402 16H15.5693C14.6301 16 14.1597 16 13.7334 16.1295C13.356 16.2441 13.0057 16.4317 12.701 16.6821C12.3568 16.965 12.096 17.3557 11.575 18.1372L11 18.9998M11 8.7998C11 7.11965 10.9998 6.27992 10.6729 5.63818C10.3852 5.0737 9.92626 4.6146 9.36178 4.32698C8.72004 4 7.87977 4 6.19961 4H3.59961C3.03956 4 2.75981 4 2.5459 4.10899C2.35774 4.20487 2.20487 4.35774 2.10899 4.5459C2 4.75981 2 5.04004 2 5.6001V14.4001C2 14.9601 2 15.2398 2.10899 15.4537C2.20487 15.6419 2.35774 15.7952 2.5459 15.8911C2.7596 16 3.03901 16 3.59797 16H6.43073C7.36994 16 7.83942 16 8.26569 16.1295C8.64306 16.2441 8.99512 16.4317 9.2998 16.6821C9.64257 16.9638 9.90172 17.3526 10.4185 18.1277L11 18.9998" stroke="currentColor" stroke-linecap="round" stroke-linejoin="round"/>
</svg>
