<svg width="22" height="22" viewBox="0 0 22 22" fill="none" xmlns="http://www.w3.org/2000/svg">
<path d="M2.99996 15.6897C2.99996 14.4149 2.99996 13.7775 3.28689 13.3092C3.44745 13.0472 3.66773 12.8269 3.92974 12.6664C4.39798 12.3794 5.03537 12.3794 6.31017 12.3794C7.58496 12.3794 8.22236 12.3794 8.6906 12.6664C8.9526 12.8269 9.17289 13.0472 9.33345 13.3092C9.62038 13.7775 9.62038 14.4149 9.62038 15.6897C9.62038 16.9645 9.62038 17.6019 9.33345 18.0702C9.17289 18.3322 8.9526 18.5525 8.6906 18.7131C8.22236 19 7.58496 19 6.31017 19C5.03537 19 4.39798 19 3.92974 18.7131C3.66773 18.5525 3.44745 18.3322 3.28689 18.0702C2.99996 17.6019 2.99996 16.9645 2.99996 15.6897Z" stroke="currentColor"/>
<path d="M12.3796 15.6897C12.3796 14.4149 12.3796 13.7775 12.6666 13.3092C12.8271 13.0472 13.0474 12.8269 13.3094 12.6664C13.7776 12.3794 14.415 12.3794 15.6898 12.3794C16.9646 12.3794 17.602 12.3794 18.0703 12.6664C18.3323 12.8269 18.5526 13.0472 18.7131 13.3092C19 13.7775 19 14.4149 19 15.6897C19 16.9645 19 17.6019 18.7131 18.0702C18.5526 18.3322 18.3323 18.5525 18.0703 18.7131C17.602 19 16.9646 19 15.6898 19C14.415 19 13.7776 19 13.3094 18.7131C13.0474 18.5525 12.8271 18.3322 12.6666 18.0702C12.3796 17.6019 12.3796 16.9645 12.3796 15.6897Z" stroke="currentColor"/>
<path d="M3 6.31028C3 5.03546 3 4.39805 3.28694 3.9298C3.44749 3.66779 3.66778 3.4475 3.92978 3.28694C4.39802 3 5.03542 3 6.31021 3C7.58501 3 8.2224 3 8.69064 3.28694C8.95265 3.4475 9.17293 3.66779 9.33349 3.9298C9.62042 4.39805 9.62042 5.03546 9.62042 6.31028C9.62042 7.5851 9.62042 8.22251 9.33349 8.69076C9.17293 8.95277 8.95265 9.17306 8.69064 9.33362C8.2224 9.62056 7.58501 9.62056 6.31021 9.62056C5.03542 9.62056 4.39802 9.62056 3.92978 9.33362C3.66778 9.17306 3.44749 8.95277 3.28694 8.69076C3 8.22251 3 7.5851 3 6.31028Z" stroke="currentColor"/>
<path d="M12.3796 6.31028C12.3796 5.03546 12.3796 4.39805 12.6666 3.9298C12.8271 3.66779 13.0474 3.4475 13.3094 3.28694C13.7776 3 14.415 3 15.6898 3C16.9646 3 17.602 3 18.0703 3.28694C18.3323 3.4475 18.5526 3.66779 18.7131 3.9298C19 4.39805 19 5.03546 19 6.31028C19 7.5851 19 8.22251 18.7131 8.69076C18.5526 8.95277 18.3323 9.17306 18.0703 9.33362C17.602 9.62056 16.9646 9.62056 15.6898 9.62056C14.415 9.62056 13.7776 9.62056 13.3094 9.33362C13.0474 9.17306 12.8271 8.95277 12.6666 8.69076C12.3796 8.22251 12.3796 7.5851 12.3796 6.31028Z" stroke="currentColor"/>
</svg>
