<svg width="22" height="22" viewBox="0 0 22 22" fill="none" xmlns="http://www.w3.org/2000/svg">
<path d="M19 16.3425V10.7945C19 10.2602 18.9995 9.99286 18.9346 9.74422C18.877 9.52387 18.7825 9.31535 18.6546 9.12693C18.5102 8.9143 18.3096 8.73797 17.9074 8.38611L13.1074 4.18611C12.3608 3.53283 11.9875 3.20635 11.5674 3.08211C11.1972 2.97263 10.8026 2.97263 10.4324 3.08211C10.0126 3.20626 9.63985 3.53242 8.89436 4.18472L4.09277 8.38611C3.69064 8.73798 3.49004 8.9143 3.3457 9.12693C3.21779 9.31536 3.12255 9.52387 3.06497 9.74422C3 9.99286 3 10.2602 3 10.7945V16.3425C3 17.2743 3 17.7401 3.15224 18.1076C3.35523 18.5977 3.74432 18.9875 4.23438 19.1905C4.60192 19.3427 5.06786 19.3427 5.99974 19.3427C6.93163 19.3427 7.39808 19.3427 7.76562 19.1905C8.25568 18.9875 8.64467 18.5978 8.84766 18.1077C8.9999 17.7402 9 17.2742 9 16.3424V15.3424C9 14.2378 9.89543 13.3424 11 13.3424C12.1046 13.3424 13 14.2378 13 15.3424V16.3424C13 17.2742 13 17.7402 13.1522 18.1077C13.3552 18.5978 13.7443 18.9875 14.2344 19.1905C14.6019 19.3427 15.0679 19.3427 15.9997 19.3427C16.9316 19.3427 17.3981 19.3427 17.7656 19.1905C18.2557 18.9875 18.6447 18.5977 18.8477 18.1076C18.9999 17.7401 19 17.2743 19 16.3425Z" stroke="currentColor" stroke-linecap="round" stroke-linejoin="round"/>
</svg>
