<svg width="22" height="22" viewBox="0 0 22 22" fill="none" xmlns="http://www.w3.org/2000/svg">
<path d="M10.8115 4.53711C10.9524 4.47967 11.1138 4.48896 11.248 4.56543L18.248 8.56641C18.2537 8.56962 18.2592 8.57374 18.2646 8.57715C18.274 8.58301 18.283 8.58925 18.292 8.5957C18.3364 8.62763 18.374 8.66647 18.4053 8.70996C18.4113 8.71834 18.4173 8.7266 18.4229 8.73535C18.4517 8.78124 18.4726 8.83154 18.4854 8.88477C18.4875 8.89383 18.4896 8.90286 18.4912 8.91211C18.4964 8.941 18.501 8.97101 18.501 9.00098V14.501C18.5008 14.7768 18.2768 15.0007 18.001 15.001C17.725 15.001 17.5012 14.7769 17.501 14.501V9.86133L16 10.7188V14.501C15.9999 14.6824 15.9018 14.8503 15.7432 14.9385L11.2432 17.4385C11.2306 17.4454 11.2171 17.4502 11.2041 17.4561C11.1995 17.4581 11.1951 17.4609 11.1904 17.4629C11.1625 17.4744 11.1337 17.4821 11.1045 17.4883C11.1016 17.4889 11.0987 17.4897 11.0957 17.4902C11.0323 17.5025 10.9677 17.5026 10.9043 17.4902C10.9013 17.4897 10.8984 17.4889 10.8955 17.4883C10.8664 17.482 10.8375 17.4744 10.8096 17.4629C10.8055 17.4612 10.8018 17.4588 10.7979 17.457C10.7843 17.451 10.77 17.4458 10.7568 17.4385L6.25684 14.9385C6.09842 14.8503 6.00009 14.6823 6 14.501V10.7188L3.75195 9.43457C3.59637 9.3455 3.5 9.17929 3.5 9C3.50024 8.82087 3.59642 8.65533 3.75195 8.56641L10.752 4.56543L10.8115 4.53711ZM7 14.207L10.5 16.1504V13.29L7 11.29V14.207ZM11.5 13.29V16.1504L15 14.207V11.29L11.5 13.29ZM5.00684 9L11 12.4238L16.9922 9L11 5.57617L5.00684 9Z" fill="currentColor"/>
</svg>
