<svg width="64" height="64" viewBox="0 0 64 64" fill="none" xmlns="http://www.w3.org/2000/svg">
<rect width="64" height="64" fill="url(#paint0_linear_8531_35164)"/>
<path d="M22.5019 35.001L25.8676 31.6353C27.5551 29.9477 29.8434 28.999 32.2318 28.999H46.5V35.001H26.1202C25.162 35.001 24.2372 35.3823 23.5602 36.0593C22.8833 36.7362 22.5019 37.6611 22.5019 38.6193V47H16.5V32.727C16.5 30.3386 17.4487 28.0504 19.1363 26.3628L25.8628 19.6363C27.5504 17.9487 29.8386 17 32.227 17H46.5V23.0019H26.1202C25.162 23.0019 24.2372 23.3833 23.5602 24.0602C22.8833 24.7372 22.5019 25.662 22.5019 26.6202V35.001Z" fill="#191919"/>
<defs>
<linearGradient id="paint0_linear_8531_35164" x1="63.5" y1="64" x2="-0.5" y2="0" gradientUnits="userSpaceOnUse">
<stop offset="0.0943125" stop-color="white"/>
<stop offset="1" stop-color="#E0FF00"/>
</linearGradient>
</defs>
</svg>
