<svg width="22" height="22" viewBox="0 0 22 22" fill="none" xmlns="http://www.w3.org/2000/svg">
<path d="M16.2166 17.3323C14.9349 15.9008 13.0727 15 11 15C8.92734 15 7.06492 15.9008 5.7832 17.3323M11 20C6.02944 20 2 15.9706 2 11C2 6.02944 6.02944 2 11 2C15.9706 2 20 6.02944 20 11C20 15.9706 15.9706 20 11 20ZM11 12C9.34315 12 8 10.6569 8 9C8 7.34315 9.34315 6 11 6C12.6569 6 14 7.34315 14 9C14 10.6569 12.6569 12 11 12Z" stroke="currentColor" stroke-linecap="round" stroke-linejoin="round"/>
</svg>
