<svg width="24" height="24" viewBox="0 0 24 24" fill="none" xmlns="http://www.w3.org/2000/svg">
<path d="M7.54972 2.18164H14.1781C14.8148 2.18164 15.3294 2.18164 15.7441 2.21514C16.1729 2.24979 16.5489 2.32256 16.8966 2.49582C17.4491 2.77292 17.8982 3.21487 18.1795 3.75832C18.3569 4.10023 18.431 4.46985 18.4662 4.8903C18.5003 5.30036 18.5003 5.80513 18.5003 6.43118V9.97843C18.5003 10.1316 18.4384 10.2785 18.3282 10.3868C18.2181 10.4951 18.0686 10.556 17.9129 10.556C17.7571 10.556 17.6077 10.4951 17.4975 10.3868C17.3873 10.2785 17.3254 10.1316 17.3254 9.97843V6.45544C17.3254 5.79935 17.3254 5.34194 17.2949 4.98502C17.2667 4.63619 17.2127 4.4352 17.1328 4.28273C16.9641 3.95661 16.6947 3.69136 16.3633 3.525C16.2082 3.44761 16.0049 3.39447 15.649 3.36675C15.2859 3.33672 14.8207 3.33672 14.1534 3.33672H7.57439C6.90709 3.33672 6.44186 3.33672 6.07884 3.36675C5.72404 3.39447 5.51962 3.44761 5.36455 3.525C5.03267 3.69116 4.76286 3.95643 4.59386 4.28273C4.51515 4.4352 4.46111 4.63619 4.43291 4.98502C4.40236 5.34194 4.40236 5.79935 4.40236 6.45544V17.5442C4.40236 18.2003 4.40236 18.6589 4.43291 19.0146C4.46111 19.3635 4.51515 19.5644 4.59386 19.7169C4.76099 20.0389 5.02635 20.3014 5.3528 20.4677L5.36455 20.47C5.38569 20.4746 5.43738 20.4862 5.53372 20.5001C5.68175 20.5216 5.8756 20.5409 6.11526 20.5578C6.58989 20.5925 7.1961 20.6156 7.83755 20.6317C9.11694 20.6629 10.4985 20.6629 11.1576 20.6629C11.3134 20.6629 11.4628 20.7238 11.573 20.8321C11.6831 20.9404 11.745 21.0873 11.745 21.2405C11.745 21.3936 11.6831 21.5405 11.573 21.6488C11.4628 21.7572 11.3134 21.818 11.1576 21.818H11.1564C10.4985 21.818 9.10284 21.818 7.80818 21.7868C7.21438 21.7748 6.62094 21.7494 6.02832 21.7106C5.80593 21.696 5.58414 21.6737 5.36337 21.6436C5.17955 21.6243 4.99996 21.5768 4.83118 21.5027C4.27843 21.2261 3.82893 20.7845 3.54709 20.2413C3.37087 19.8994 3.29685 19.5298 3.26161 19.1093C3.22754 18.6993 3.22754 18.1934 3.22754 17.5673V6.43234C3.22754 5.80628 3.22754 5.30036 3.26161 4.89261C3.29685 4.47101 3.37087 4.10138 3.54709 3.75948C3.82873 3.21585 4.27825 2.77388 4.83118 2.49698C5.17892 2.32372 5.55487 2.25095 5.9825 2.21629C6.39957 2.18164 6.91297 2.18164 7.54972 2.18164Z" fill="currentColor"/>
<path d="M17.4546 17.5962L18.8783 19.0198C18.9683 19.1098 19.0828 19.1548 19.2219 19.1548C19.361 19.1548 19.4755 19.1098 19.5655 19.0198C19.6555 18.9298 19.7005 18.8153 19.7005 18.6762C19.7005 18.5371 19.6555 18.4225 19.5655 18.3325L18.1419 16.9089L19.5655 15.4853C19.6555 15.3953 19.7005 15.2807 19.7005 15.1416C19.7005 15.0025 19.6555 14.888 19.5655 14.798C19.4755 14.708 19.361 14.663 19.2219 14.663C19.0828 14.663 18.9683 14.708 18.8783 14.798L17.4546 16.2216L16.031 14.798C15.941 14.708 15.8264 14.663 15.6874 14.663C15.5483 14.663 15.4337 14.708 15.3437 14.798C15.2537 14.888 15.2087 15.0025 15.2087 15.1416C15.2087 15.2807 15.2537 15.3953 15.3437 15.4853L16.7674 16.9089L15.3437 18.3325C15.2537 18.4225 15.2087 18.5371 15.2087 18.6762C15.2087 18.8153 15.2537 18.9298 15.3437 19.0198C15.4337 19.1098 15.5483 19.1548 15.6874 19.1548C15.8264 19.1548 15.941 19.1098 16.031 19.0198L17.4546 17.5962ZM17.4546 21.818C16.7755 21.818 16.1374 21.6891 15.5401 21.4312C14.9428 21.1733 14.4233 20.8236 13.9814 20.3821C13.5396 19.9406 13.1899 19.4211 12.9324 18.8235C12.6748 18.2259 12.5459 17.5877 12.5455 16.9089C12.5452 16.2301 12.6742 15.592 12.9324 14.9944C13.1906 14.3968 13.5403 13.8772 13.9814 13.4357C14.4226 12.9942 14.9422 12.6445 15.5401 12.3867C16.138 12.1288 16.7762 11.9998 17.4546 11.9998C18.1331 11.9998 18.7712 12.1288 19.3692 12.3867C19.9671 12.6445 20.4867 12.9942 20.9278 13.4357C21.369 13.8772 21.7188 14.3968 21.9774 14.9944C22.2359 15.592 22.3647 16.2301 22.3637 16.9089C22.3627 17.5877 22.2338 18.2259 21.9769 18.8235C21.72 19.4211 21.3703 19.9406 20.9278 20.3821C20.4853 20.8236 19.9658 21.1734 19.3692 21.4317C18.7726 21.6899 18.1344 21.8187 17.4546 21.818ZM17.4546 20.8362C18.551 20.8362 19.4796 20.4557 20.2405 19.6948C21.0014 18.9339 21.3819 18.0053 21.3819 16.9089C21.3819 15.8125 21.0014 14.8839 20.2405 14.123C19.4796 13.3621 18.551 12.9816 17.4546 12.9816C16.3583 12.9816 15.4296 13.3621 14.6687 14.123C13.9078 14.8839 13.5274 15.8125 13.5274 16.9089C13.5274 18.0053 13.9078 18.9339 14.6687 19.6948C15.4296 20.4557 16.3583 20.8362 17.4546 20.8362Z" fill="currentColor"/>
<path d="M7.06347 5.45452C6.91414 5.45452 6.77092 5.51609 6.66533 5.62569C6.55974 5.73529 6.50042 5.88394 6.50042 6.03894C6.50042 6.19393 6.55974 6.34258 6.66533 6.45218C6.77092 6.56178 6.91414 6.62335 7.06347 6.62335H11.5679C11.7172 6.62335 11.8604 6.56178 11.966 6.45218C12.0716 6.34258 12.1309 6.19393 12.1309 6.03894C12.1309 5.88394 12.0716 5.73529 11.966 5.62569C11.8604 5.51609 11.7172 5.45452 11.5679 5.45452H7.06347ZM6.50042 9.54543C6.50042 9.39043 6.55974 9.24178 6.66533 9.13218C6.77092 9.02258 6.91414 8.96101 7.06347 8.96101H14.9462C15.0955 8.96101 15.2387 9.02258 15.3443 9.13218C15.4499 9.24178 15.5092 9.39043 15.5092 9.54543C15.5092 9.70043 15.4499 9.84907 15.3443 9.95867C15.2387 10.0683 15.0955 10.1298 14.9462 10.1298H7.06347C6.91414 10.1298 6.77092 10.0683 6.66533 9.95867C6.55974 9.84907 6.50042 9.70043 6.50042 9.54543ZM7.06347 12.4675C6.91414 12.4675 6.77092 12.5291 6.66533 12.6387C6.55974 12.7483 6.50042 12.8969 6.50042 13.0519C6.50042 13.2069 6.55974 13.3556 6.66533 13.4652C6.77092 13.5748 6.91414 13.6363 7.06347 13.6363H11.0048C11.1541 13.6363 11.2974 13.5748 11.403 13.4652C11.5085 13.3556 11.5679 13.2069 11.5679 13.0519C11.5679 12.8969 11.5085 12.7483 11.403 12.6387C11.2974 12.5291 11.1541 12.4675 11.0048 12.4675H7.06347ZM6.50042 16.4024C6.50042 16.2474 6.55974 16.0988 6.66533 15.9892C6.77092 15.8796 6.91414 15.818 7.06347 15.818H9.31567C9.465 15.818 9.60821 15.8796 9.7138 15.9892C9.8194 16.0988 9.87872 16.2474 9.87872 16.4024C9.87872 16.5574 9.8194 16.7061 9.7138 16.8157C9.60821 16.9253 9.465 16.9868 9.31567 16.9868H7.06347C6.91414 16.9868 6.77092 16.9253 6.66533 16.8157C6.55974 16.7061 6.50042 16.5574 6.50042 16.4024Z" fill="currentColor"/>
</svg>
