<svg width="24" height="24" viewBox="0 0 24 24" fill="none" xmlns="http://www.w3.org/2000/svg">
<g clip-path="url(#clip0_8769_35680)">
<path d="M14.1782 2.18164C14.8149 2.18164 15.3295 2.18117 15.7442 2.21467C16.173 2.24932 16.5492 2.32266 16.8969 2.49592C17.4493 2.77302 17.8983 3.21498 18.1796 3.75835C18.357 4.10024 18.4309 4.47037 18.4662 4.8908C18.5002 5.30077 18.5003 5.80548 18.5003 6.43129V9.97887C18.5001 10.1318 18.4387 10.2787 18.3287 10.3869C18.2187 10.4951 18.0689 10.5562 17.9133 10.5563C17.7576 10.5563 17.6079 10.4951 17.4978 10.3869C17.3877 10.2787 17.3253 10.1319 17.3252 9.97887V6.45579C17.3252 5.7997 17.3259 5.34147 17.2954 4.98455C17.2672 4.63598 17.2122 4.4349 17.1324 4.28249C16.9637 3.95653 16.6945 3.69133 16.3632 3.52504C16.2082 3.44769 16.0051 3.39403 15.6494 3.3663C15.2864 3.33627 14.8208 3.33647 14.1537 3.33647H7.57413C6.90697 3.33647 6.44136 3.33627 6.07839 3.3663C5.72388 3.39403 5.51963 3.44769 5.36461 3.52504C5.03287 3.69113 4.76339 3.95637 4.59437 4.28249C4.51569 4.4349 4.46064 4.63598 4.43244 4.98455C4.40189 5.34147 4.40261 5.7997 4.40261 6.45579V17.5439C4.40261 18.1999 4.40189 18.6593 4.43244 19.0151C4.46064 19.3637 4.51569 19.5647 4.59437 19.7172C4.76151 20.039 5.02658 20.302 5.35289 20.4682L5.36461 20.4703C5.38584 20.475 5.43786 20.4863 5.534 20.5002C5.68199 20.5217 5.87617 20.5408 6.11568 20.5577C6.59017 20.5923 7.19611 20.615 7.83727 20.6312C9.11665 20.6624 10.4989 20.6632 11.1579 20.6632C11.3136 20.6633 11.4633 20.7243 11.5734 20.8326C11.6833 20.9408 11.7449 21.0876 11.7449 21.2406C11.7449 21.3936 11.6833 21.5404 11.5734 21.6486C11.4633 21.7568 11.3136 21.8179 11.1579 21.818C10.5001 21.818 9.10307 21.8183 7.8085 21.7871C7.2147 21.7751 6.62093 21.7492 6.02832 21.7104C5.80598 21.6958 5.58427 21.6734 5.36355 21.6433C5.17973 21.6241 4.99966 21.5768 4.83088 21.5027C4.27824 21.2261 3.82894 20.7844 3.54714 20.2413C3.37092 19.8994 3.29687 19.5293 3.26163 19.1088C3.2276 18.6989 3.22754 18.1931 3.22754 17.5673V6.43235C3.22754 5.80646 3.22759 5.30062 3.26163 4.89293C3.29687 4.47133 3.37092 4.10131 3.54714 3.75941C3.82874 3.21589 4.27809 2.77388 4.83088 2.49698C5.17862 2.32372 5.55489 2.25145 5.98251 2.2168C6.39955 2.18215 6.91291 2.18164 7.54963 2.18164H14.1782ZM20.7119 12.4675C21.1655 12.4675 21.5393 12.4674 21.8444 12.4931C22.1608 12.52 22.4529 12.5772 22.7254 12.7221C23.1491 12.9462 23.4939 13.304 23.7098 13.7438C23.8493 14.0277 23.9044 14.3295 23.9303 14.6578C23.9551 14.9734 23.9548 15.3631 23.9548 15.8329V18.4526C23.9548 18.9225 23.9551 19.3109 23.9303 19.6277C23.9044 19.9561 23.8494 20.2589 23.7098 20.5417C23.4939 20.9815 23.1491 21.3393 22.7254 21.5634C22.4518 21.7083 22.1608 21.7656 21.8444 21.7924C21.5404 21.8181 21.1655 21.818 20.713 21.818H15.936C15.4835 21.818 15.1097 21.8181 14.8046 21.7924C14.4882 21.7656 14.196 21.7083 13.9236 21.5634C13.4998 21.3393 13.1551 20.9816 12.9392 20.5417C12.7996 20.2577 12.7446 19.9561 12.7187 19.6277C12.6939 19.3121 12.6942 18.9225 12.6942 18.4526V15.8329C12.6942 15.3631 12.6939 14.9746 12.7187 14.6578C12.7446 14.3294 12.7996 14.0266 12.9392 13.7438C13.1551 13.3039 13.4998 12.9462 13.9236 12.7221C14.1972 12.5772 14.4882 12.52 14.8046 12.4931C15.1086 12.4674 15.4835 12.4675 15.936 12.4675H20.7119ZM13.8202 18.4281C13.8202 18.9284 13.8201 19.27 13.8415 19.5318C13.8618 19.7889 13.8977 19.92 13.9427 20.0112C14.0507 20.231 14.2231 20.4095 14.4349 20.5215C14.5227 20.5682 14.6486 20.6059 14.8962 20.627C15.1496 20.6492 15.4775 20.6493 15.9594 20.6493H20.6895C21.171 20.6493 21.4996 20.6491 21.7517 20.627C21.9994 20.6059 22.1262 20.5682 22.214 20.5215C22.4258 20.4094 22.5983 20.231 22.7062 20.0112C22.7513 19.92 22.7872 19.7889 22.8074 19.5318C22.8288 19.2688 22.8287 18.9284 22.8287 18.4281V17.1422H13.8202V18.4281ZM9.31596 15.818C9.46503 15.8181 9.60787 15.8802 9.71333 15.9895C9.81893 16.0991 9.87846 16.2479 9.87846 16.4029C9.87846 16.5579 9.81893 16.7066 9.71333 16.8162C9.60787 16.9256 9.46503 16.9876 9.31596 16.9877H7.06383C6.91457 16.9877 6.77097 16.9257 6.66539 16.8162C6.5598 16.7066 6.50027 16.5579 6.50027 16.4029C6.50027 16.2479 6.5598 16.0991 6.66539 15.9895C6.77097 15.88 6.91458 15.818 7.06383 15.818H9.31596ZM15.9594 13.6362C15.4775 13.6362 15.1484 13.6364 14.8962 13.6586C14.6486 13.6796 14.5227 13.7173 14.4349 13.764C14.2231 13.8761 14.0507 14.0545 13.9427 14.2743C13.8977 14.3655 13.8618 14.4966 13.8415 14.7537L13.8373 14.8049H22.8117L22.8074 14.7537C22.7872 14.4967 22.7513 14.3655 22.7062 14.2743C22.5983 14.0545 22.4258 13.8761 22.214 13.764C22.1262 13.7173 21.9994 13.6796 21.7517 13.6586C21.398 13.6378 21.0437 13.6302 20.6895 13.6362H15.9594ZM11.0045 12.4675C11.1539 12.4675 11.2974 12.5294 11.403 12.639C11.5082 12.7485 11.568 12.8966 11.5681 13.0513C11.5681 13.2062 11.5084 13.3551 11.403 13.4647C11.2974 13.5743 11.1539 13.6362 11.0045 13.6362H7.06383C6.9145 13.6362 6.77099 13.5743 6.66539 13.4647C6.55985 13.3551 6.50027 13.2063 6.50027 13.0513C6.50038 12.8966 6.56 12.7485 6.66539 12.639C6.77099 12.5294 6.9145 12.4675 7.06383 12.4675H11.0045ZM14.9463 8.96041C15.0954 8.96048 15.2382 9.02258 15.3437 9.13193C15.4493 9.24152 15.5088 9.39028 15.5088 9.54528C15.5088 9.70027 15.4493 9.84903 15.3437 9.95863C15.2382 10.068 15.0954 10.1301 14.9463 10.1301H7.06383C6.91458 10.1301 6.77097 10.0681 6.66539 9.95863C6.5598 9.84903 6.50027 9.70027 6.50027 9.54528C6.50027 9.39028 6.5598 9.24152 6.66539 9.13193C6.77097 9.02243 6.91458 8.96041 7.06383 8.96041H14.9463ZM11.5681 5.45437C11.7173 5.45447 11.86 5.51639 11.9655 5.62589C12.0711 5.73549 12.1306 5.88424 12.1306 6.03924C12.1305 6.19404 12.0709 6.34204 11.9655 6.45153C11.86 6.56103 11.7173 6.62294 11.5681 6.62305H7.06383C6.9145 6.62305 6.77099 6.56113 6.66539 6.45153C6.56 6.34205 6.50038 6.194 6.50027 6.03924C6.50027 5.88428 6.55985 5.73548 6.66539 5.62589C6.77099 5.51629 6.9145 5.45437 7.06383 5.45437H11.5681Z" fill="currentColor"/>
</g>
<defs>
<clipPath id="clip0_8769_35680">
<rect width="24" height="24" fill="white"/>
</clipPath>
</defs>
</svg>
