<svg width="24" height="24" viewBox="0 0 24 24" fill="none" xmlns="http://www.w3.org/2000/svg">
<path d="M14.3775 16.8094C14.5339 16.8094 14.6843 16.8719 14.7949 16.9835C14.9054 17.095 14.9677 17.2465 14.9678 17.4042C14.9678 17.5619 14.9053 17.7133 14.7949 17.8249C14.6843 17.9366 14.5339 18 14.3775 18H8.01841C7.86198 18 7.71164 17.9366 7.60102 17.8249C7.49066 17.7134 7.42813 17.5619 7.42813 17.4042C7.42822 17.2465 7.49052 17.095 7.60102 16.9835C7.71164 16.8719 7.86198 16.8094 8.01841 16.8094H14.3775Z" fill="currentColor"/>
<path d="M16.2762 13.3969C16.4326 13.3969 16.583 13.4593 16.6936 13.5709C16.8041 13.6824 16.8654 13.834 16.8655 13.9916C16.8655 14.1495 16.8042 14.3017 16.6936 14.4134C16.583 14.525 16.4326 14.5874 16.2762 14.5874H8.01841C7.86201 14.5874 7.71163 14.525 7.60102 14.4134C7.49041 14.3017 7.42813 14.1495 7.42813 13.9916C7.42824 13.8339 7.49052 13.6824 7.60102 13.5709C7.71164 13.4593 7.86198 13.3969 8.01841 13.3969H16.2762Z" fill="currentColor"/>
<path d="M16.2762 9.82514C16.4326 9.82518 16.583 9.8886 16.6936 10.0002C16.804 10.1118 16.8655 10.2633 16.8655 10.4209C16.8654 10.5786 16.8041 10.7301 16.6936 10.8417C16.583 10.9533 16.4326 11.0157 16.2762 11.0157H8.01841C7.86198 11.0157 7.71164 10.9533 7.60102 10.8417C7.49053 10.7301 7.42819 10.5787 7.42813 10.4209C7.42813 10.2632 7.49062 10.1118 7.60102 10.0002C7.71164 9.88857 7.86198 9.82514 8.01841 9.82514H16.2762Z" fill="currentColor"/>
<path d="M12.7366 6.25443C12.893 6.25443 13.0434 6.31691 13.154 6.42849C13.2646 6.54009 13.3268 6.69139 13.3269 6.84921C13.3269 7.00705 13.2645 7.15832 13.154 7.26994C13.0433 7.38157 12.893 7.445 12.7366 7.445H8.01841C7.86198 7.445 7.71164 7.38157 7.60102 7.26994C7.49059 7.15834 7.42813 7.00694 7.42813 6.84921C7.42816 6.69147 7.49054 6.54007 7.60102 6.42849C7.71164 6.31686 7.86198 6.25443 8.01841 6.25443H12.7366Z" fill="currentColor"/>
<path fill-rule="evenodd" clip-rule="evenodd" d="M15.4711 2C16.1381 2 16.6776 2.00069 17.112 2.03481C17.5612 2.0701 17.9549 2.14385 18.3192 2.32027C18.4643 2.39105 18.603 2.47208 18.7335 2.56296C19.124 2.83421 19.4441 3.19144 19.6655 3.60633C19.7347 3.73688 19.7887 3.87142 19.8312 4.01114C19.9025 4.24398 19.9401 4.4916 19.9632 4.7591C19.9721 4.86366 19.9796 4.97422 19.9847 5.09131C19.9999 5.44225 20 5.85158 20 6.32962V17.6704C20 18.308 19.9999 18.8236 19.9642 19.2389C19.9273 19.6682 19.85 20.0446 19.6655 20.3927C19.3705 20.9463 18.8994 21.3967 18.3202 21.6787C17.9559 21.8552 17.562 21.9299 17.1141 21.9652C16.6772 22.0005 16.1392 22 15.4721 22H8.5289C7.86186 22 7.32242 22.0003 6.88798 21.9662C6.43877 21.9309 6.04511 21.8562 5.68082 21.6797C5.52662 21.6045 5.38052 21.5169 5.24297 21.4191C4.8635 21.1501 4.55131 20.7999 4.33453 20.3937C4.15007 20.0456 4.07271 19.669 4.03581 19.2409C4.00013 18.8233 4 18.3079 4 17.6704V6.32962C4 5.69198 4.00011 5.17638 4.03581 4.76109C4.07273 4.33186 4.15001 3.95544 4.33453 3.60732C4.62955 3.05364 5.10058 2.60329 5.6798 2.32127C6.04406 2.14481 6.438 2.0711 6.88593 2.03581C7.32284 2.00051 7.86083 2 8.52788 2H15.4711ZM8.55345 3.17665C7.85466 3.17665 7.36743 3.17692 6.98721 3.20748C6.61554 3.23571 6.40082 3.28979 6.23836 3.36861C5.89083 3.53786 5.60819 3.8082 5.4312 4.14044C5.34881 4.29571 5.29193 4.50047 5.2624 4.85558C5.23042 5.21909 5.23069 5.68534 5.23069 6.35349V14.0489C5.23075 14.0523 5.23171 14.0556 5.23171 14.0589L5.23069 17.6475C5.23069 18.3153 5.23044 18.7822 5.2624 19.1444C5.29192 19.4994 5.34967 19.7043 5.43325 19.8596C5.54178 20.0636 5.69033 20.2444 5.86905 20.3927C5.97769 20.4824 6.09718 20.5606 6.22609 20.6244L6.23836 20.6274C6.26052 20.6321 6.31545 20.6431 6.41637 20.6573C6.57137 20.6792 6.77426 20.6987 7.02506 20.7159C7.52227 20.7512 8.1577 20.7751 8.82967 20.7915C10.1696 20.8233 11.6164 20.8234 12.3069 20.8234H15.4465C16.1454 20.8234 16.6326 20.8231 17.0128 20.7925C17.3845 20.7643 17.5992 20.7102 17.7616 20.6314C18.1091 20.4621 18.3918 20.1918 18.5688 19.8596C18.6511 19.7043 18.7081 19.4994 18.7376 19.1444C18.7696 18.781 18.7693 18.3153 18.7693 17.6475L18.7683 6.35349C18.7683 5.68532 18.7686 5.21909 18.7366 4.85558C18.707 4.50044 18.6504 4.29571 18.5668 4.14044C18.479 3.97543 18.3651 3.8255 18.2302 3.69584C18.0968 3.56821 17.9435 3.45958 17.7739 3.37557L17.7616 3.37358C17.7395 3.36888 17.6845 3.35687 17.5836 3.34275C17.4286 3.32082 17.2257 3.3013 16.9749 3.28407C16.4777 3.24877 15.8423 3.22494 15.1703 3.20847C14.5002 3.1926 13.8033 3.18459 13.1877 3.18062L11.6931 3.17665H8.55345Z" fill="currentColor"/>
</svg>
