<svg width="24" height="24" viewBox="0 0 24 24" fill="none" xmlns="http://www.w3.org/2000/svg">
<path d="M14.1782 2.18164C14.8149 2.18164 15.3295 2.18117 15.7442 2.21467C16.173 2.24932 16.5492 2.32266 16.8969 2.49592C17.4493 2.77302 17.8983 3.21498 18.1796 3.75835C18.357 4.10024 18.4309 4.47037 18.4662 4.8908C18.5002 5.30077 18.5003 5.80548 18.5003 6.43129V9.97887C18.5001 10.1318 18.4387 10.2787 18.3287 10.3869C18.2187 10.4951 18.0689 10.5562 17.9133 10.5563C17.7576 10.5563 17.6079 10.4951 17.4978 10.3869C17.3877 10.2787 17.3253 10.1319 17.3252 9.97887V6.45579C17.3252 5.7997 17.3259 5.34147 17.2954 4.98455C17.2672 4.63598 17.2122 4.4349 17.1324 4.28249C16.9637 3.95653 16.6945 3.69133 16.3632 3.52504C16.2082 3.44769 16.0051 3.39403 15.6494 3.3663C15.2864 3.33627 14.8208 3.33647 14.1537 3.33647H7.57413C6.90697 3.33647 6.44136 3.33627 6.07839 3.3663C5.72388 3.39403 5.51963 3.44769 5.36461 3.52504C5.03287 3.69113 4.76339 3.95637 4.59437 4.28249C4.51569 4.4349 4.46064 4.63598 4.43244 4.98455C4.40189 5.34147 4.40261 5.7997 4.40261 6.45579V17.5439C4.40261 18.1999 4.40189 18.6593 4.43244 19.0151C4.46064 19.3637 4.51569 19.5647 4.59437 19.7172C4.76151 20.039 5.02658 20.302 5.35289 20.4682L5.36461 20.4703C5.38584 20.475 5.43786 20.4863 5.534 20.5002C5.68199 20.5217 5.87617 20.5408 6.11568 20.5577C6.59017 20.5923 7.19611 20.615 7.83727 20.6312C9.11665 20.6624 10.4989 20.6632 11.1579 20.6632C11.3136 20.6633 11.4633 20.7243 11.5734 20.8326C11.6833 20.9408 11.7449 21.0876 11.7449 21.2406C11.7449 21.3936 11.6833 21.5404 11.5734 21.6486C11.4633 21.7568 11.3136 21.8179 11.1579 21.818C10.5001 21.818 9.10307 21.8183 7.8085 21.7871C7.2147 21.7751 6.62093 21.7492 6.02832 21.7104C5.80598 21.6958 5.58427 21.6734 5.36355 21.6433C5.17973 21.6241 4.99966 21.5768 4.83088 21.5027C4.27824 21.2261 3.82894 20.7844 3.54714 20.2413C3.37092 19.8994 3.29687 19.5293 3.26163 19.1088C3.2276 18.6989 3.22754 18.1931 3.22754 17.5673V6.43235C3.22754 5.80646 3.22759 5.30062 3.26163 4.89293C3.29687 4.47133 3.37092 4.10131 3.54714 3.75941C3.82874 3.21589 4.27809 2.77388 4.83088 2.49698C5.17862 2.32372 5.55489 2.25145 5.98251 2.2168C6.39955 2.18215 6.91291 2.18164 7.54963 2.18164H14.1782ZM17.4541 11.9689C18.1325 11.9689 18.7717 12.0978 19.3696 12.3556C19.9673 12.6135 20.4871 12.9636 20.9282 13.405C21.3691 13.8464 21.7191 14.3662 21.9775 14.9636C22.236 15.5611 22.3652 16.1994 22.3643 16.878C22.3632 17.5567 22.2333 18.1949 21.9765 18.7924C21.7196 19.3899 21.3705 19.9096 20.9282 20.351C20.4858 20.7924 19.966 21.1422 19.3696 21.4004C18.773 21.6586 18.1338 21.7878 17.4541 21.7871C16.7752 21.787 16.1368 21.6582 15.5397 21.4004C14.9425 21.1425 14.4229 20.7925 13.9811 20.351C13.5394 19.9096 13.1903 19.3899 12.9328 18.7924C12.6753 18.1949 12.5454 17.5567 12.545 16.878C12.5447 16.1993 12.6746 15.5611 12.9328 14.9636C13.1909 14.3662 13.5401 13.8464 13.9811 13.405C14.4222 12.9636 14.9419 12.6135 15.5397 12.3556C16.1375 12.0978 16.7759 11.969 17.4541 11.9689ZM17.4541 12.9501C16.358 12.9502 15.429 13.3314 14.6682 14.0922C13.9076 14.853 13.5273 15.7819 13.5273 16.878C13.5273 17.9742 13.9075 18.9031 14.6682 19.6639C15.429 20.4247 16.358 20.8047 17.4541 20.8049C18.5505 20.8049 19.4801 20.4248 20.241 19.6639C21.0018 18.9031 21.3819 17.9742 21.382 16.878C21.382 15.7819 21.0017 14.853 20.241 14.0922C19.4801 13.3312 18.5505 12.9501 17.4541 12.9501ZM19.327 15.5091C19.4974 15.3386 19.7745 15.3386 19.9449 15.5091C20.1152 15.6795 20.1153 15.9566 19.9449 16.127L17.2176 18.8542C17.0472 19.0246 16.7701 19.0246 16.5997 18.8542L14.9633 17.2179C14.7929 17.0475 14.7929 16.7704 14.9633 16.6C15.1337 16.4296 15.4108 16.4296 15.5812 16.6L16.9086 17.9274L19.327 15.5091ZM9.31596 15.818C9.46516 15.8181 9.60782 15.88 9.71333 15.9895C9.81893 16.0991 9.87846 16.2479 9.87846 16.4029C9.87835 16.5577 9.81881 16.7057 9.71333 16.8152C9.60781 16.9247 9.46519 16.9866 9.31596 16.9867H7.06383C6.9145 16.9867 6.77099 16.9248 6.66539 16.8152C6.56004 16.7057 6.50038 16.5576 6.50027 16.4029C6.50027 16.248 6.55989 16.0991 6.66539 15.9895C6.77099 15.8799 6.9145 15.818 7.06383 15.818H9.31596ZM11.0045 12.4675C11.1539 12.4675 11.2974 12.5294 11.403 12.639C11.5084 12.7486 11.5681 12.8975 11.5681 13.0524C11.568 13.2071 11.5083 13.3552 11.403 13.4647C11.2974 13.5743 11.1539 13.6362 11.0045 13.6362H7.06383C6.9145 13.6362 6.77099 13.5743 6.66539 13.4647C6.56004 13.3552 6.50038 13.2071 6.50027 13.0524C6.50027 12.8975 6.55989 12.7486 6.66539 12.639C6.77099 12.5294 6.9145 12.4675 7.06383 12.4675H11.0045ZM14.9463 8.96147C15.0956 8.9615 15.2392 9.02236 15.3447 9.13193C15.4502 9.24148 15.5087 9.39037 15.5088 9.54528C15.5088 9.70016 15.4502 9.84905 15.3447 9.95863C15.2392 10.0682 15.0956 10.1301 14.9463 10.1301H7.06383C6.9145 10.1301 6.77099 10.0682 6.66539 9.95863C6.5598 9.84903 6.50027 9.70027 6.50027 9.54528C6.5003 9.39034 6.55984 9.24149 6.66539 9.13193C6.77097 9.02243 6.91458 8.96147 7.06383 8.96147H14.9463ZM11.5681 5.45437C11.7173 5.45443 11.861 5.51634 11.9665 5.62589C12.0719 5.73545 12.1306 5.88442 12.1306 6.03924C12.1305 6.1941 12.072 6.34307 11.9665 6.45259C11.861 6.56214 11.7173 6.62299 11.5681 6.62305H7.06383C6.91461 6.62305 6.77096 6.56204 6.66539 6.45259C6.55987 6.34307 6.50034 6.19413 6.50027 6.03924C6.50027 5.88428 6.55984 5.73548 6.66539 5.62589C6.77099 5.51629 6.9145 5.45437 7.06383 5.45437H11.5681Z" fill="currentColor"/>
</svg>
