<svg width="22" height="22" viewBox="0 0 22 22" fill="none" xmlns="http://www.w3.org/2000/svg">
<path d="M17.5498 3.50391C17.7745 3.50747 17.9751 3.51465 18.1543 3.5293C18.5185 3.55909 18.8387 3.62162 19.1348 3.77246C19.6045 4.01188 19.9876 4.39438 20.2275 4.86523C20.3782 5.16111 20.441 5.48083 20.4707 5.84473C20.5 6.20293 20.5 6.64656 20.5 7.19727V14.8037C20.5 15.3543 20.5 15.7973 20.4707 16.1553C20.4409 16.5192 20.3783 16.8389 20.2275 17.1348C19.9878 17.6053 19.6047 17.988 19.1348 18.2275C18.839 18.3783 18.519 18.4409 18.1553 18.4707C17.7973 18.5 17.3534 18.5 16.8027 18.5H5.19727C4.64656 18.5 4.20293 18.5 3.84473 18.4707C3.48083 18.441 3.16111 18.3782 2.86523 18.2275C2.39455 17.9877 2.012 17.6049 1.77246 17.1348C1.62161 16.8387 1.55907 16.5186 1.5293 16.1543C1.5 15.7958 1.5 15.3516 1.5 14.7998V7.2002C1.5 6.64839 1.5 6.20439 1.5293 5.8457C1.55906 5.48137 1.62168 5.16131 1.77246 4.86523C2.01214 4.39483 2.39483 4.01214 2.86523 3.77246C3.16131 3.62168 3.48137 3.55906 3.8457 3.5293C4.20439 3.5 4.64839 3.5 5.2002 3.5H16.7998L17.5498 3.50391ZM2.5 14.7998C2.5 15.3681 2.50019 15.7649 2.52539 16.0732C2.55009 16.3753 2.5961 16.5491 2.66309 16.6807C2.80699 16.9631 3.03652 17.1932 3.31836 17.3369C3.44977 17.4039 3.62377 17.4499 3.92578 17.4746C4.23381 17.4998 4.63006 17.5 5.19727 17.5H16.8027C17.3698 17.5 17.7655 17.4998 18.0732 17.4746C18.3752 17.4499 18.5491 17.4039 18.6807 17.3369C18.9631 17.193 19.1933 16.9626 19.3369 16.6807C19.4038 16.5492 19.4499 16.3758 19.4746 16.0742C19.4998 15.7664 19.5 15.3709 19.5 14.8037V10.5H2.5V14.7998ZM10 13.5C10.2761 13.5 10.5 13.7239 10.5 14C10.5 14.2761 10.2761 14.5 10 14.5H6C5.72386 14.5 5.5 14.2761 5.5 14C5.5 13.7239 5.72386 13.5 6 13.5H10ZM5.2002 4.5C4.6319 4.5 4.23529 4.50019 3.92676 4.52539C3.62423 4.55012 3.44996 4.59603 3.31836 4.66309C3.03626 4.80687 2.80687 5.03626 2.66309 5.31836C2.59603 5.44996 2.55012 5.62423 2.52539 5.92676C2.50019 6.23529 2.5 6.6319 2.5 7.2002V7.5H19.5V7.19727C19.5 6.63006 19.4998 6.23381 19.4746 5.92578C19.4499 5.62377 19.4039 5.44977 19.3369 5.31836C19.1934 5.03679 18.9633 4.80713 18.6807 4.66309C18.5489 4.59596 18.3746 4.5501 18.0723 4.52539C17.9183 4.51282 17.7425 4.50617 17.5342 4.50293L16.7998 4.5H5.2002Z" fill="currentColor"/>
</svg>
