<svg width="22" height="22" viewBox="0 0 22 22" fill="none" xmlns="http://www.w3.org/2000/svg">
<path fill-rule="evenodd" clip-rule="evenodd" d="M16.93 4C18.6255 4.00002 19.9999 5.37544 20 7.07213C20 7.10474 19.9969 7.1367 19.9926 7.16814V13.1906C19.9926 13.9075 19.9937 14.4849 19.9557 14.9509C19.9219 15.3653 19.855 15.7359 19.7076 16.0799L19.6393 16.2258C19.3281 16.837 18.8313 17.334 18.2206 17.6455C17.836 17.8415 17.4197 17.9234 16.9467 17.9622C16.4809 18.0002 15.9041 18 15.1875 18H6.80603C6.08958 18 5.51268 18.0003 5.04689 17.9622C4.5734 17.9233 4.15692 17.8414 3.77205 17.6446C3.23837 17.3723 2.79149 16.9581 2.47968 16.4501L2.35423 16.2258C2.15834 15.8408 2.07649 15.4245 2.03782 14.9509C1.99979 14.4849 2 13.9076 2 13.1906V7.13491C2 7.12625 2.0015 7.11767 2.00184 7.10906C2.00121 7.09682 2 7.08454 2 7.07213C1.99989 5.37548 3.37449 4 5.06995 4H16.93ZM13.6636 11.708C12.971 12.1701 12.4796 12.5072 11.9727 12.6792L11.7532 12.7419C11.2562 12.8611 10.7378 12.8618 10.2404 12.7428L10.2394 12.7419C9.64893 12.6 9.1215 12.2355 8.33178 11.709L3.29883 8.34973V13.1906C3.29883 13.9288 3.29935 14.444 3.33204 14.8448C3.36409 15.2373 3.42405 15.4638 3.51099 15.635C3.69787 16.0015 3.996 16.3003 4.36243 16.487C4.53343 16.5744 4.76022 16.6348 5.15298 16.667C5.55341 16.6998 6.06811 16.7003 6.80603 16.7003H15.1875C15.9255 16.7003 16.44 16.6998 16.8406 16.667C17.2332 16.6349 17.4591 16.5751 17.6302 16.4879C17.9966 16.3011 18.2949 16.0026 18.4816 15.6359C18.5688 15.4646 18.6285 15.2379 18.6606 14.8448C18.6933 14.444 18.6938 13.9288 18.6938 13.1906V8.34973L13.6636 11.708ZM5.06995 5.41791C4.22418 5.41791 3.52685 6.05369 3.42889 6.87366L9.05222 10.628C9.92817 11.2121 10.2314 11.4034 10.5429 11.4782C10.8418 11.5497 11.1521 11.5494 11.4497 11.4782C11.7607 11.4034 12.0672 11.2115 12.9432 10.6271L18.5693 6.86997C18.4695 6.05181 17.7746 5.41793 16.93 5.41791H5.06995Z" fill="currentColor"/>
</svg>
