<svg width="22" height="22" viewBox="0 0 22 22" fill="none" xmlns="http://www.w3.org/2000/svg">
<path d="M18.7006 9.21647L13.6684 12.6221C12.9755 13.0905 12.4839 13.4314 11.9768 13.6057L11.7572 13.6702C11.26 13.7911 10.7414 13.7909 10.2437 13.6702C9.65297 13.5264 9.12437 13.1568 8.33437 12.623L3.29936 9.21647V14.1251C3.29936 14.8738 3.29984 15.3958 3.33258 15.8021C3.36468 16.2005 3.42449 16.4296 3.51161 16.6032C3.67527 16.9286 3.92419 17.2006 4.22958 17.3903L4.36339 17.4661L4.36432 17.467C4.53538 17.5556 4.76147 17.616 5.15427 17.6486C5.55487 17.6819 6.06976 17.6823 6.808 17.6823H15.1929C15.9312 17.6823 16.4459 17.6818 16.8467 17.6486C17.2396 17.616 17.4654 17.5554 17.6366 17.467C18.0033 17.2776 18.3015 16.9751 18.4884 16.6032C18.5756 16.4296 18.6353 16.2006 18.6674 15.8021C18.7002 15.3958 18.7006 14.8738 18.7006 14.1251V9.21647ZM11.3927 4.35747C11.1336 4.30348 10.8664 4.30341 10.6073 4.35747L10.6064 4.3584C10.3379 4.41406 10.0703 4.55645 9.29597 4.99292L3.89551 8.03635L9.05511 11.5262C9.93147 12.1184 10.2348 12.3132 10.5464 12.3891C10.8454 12.4616 11.1558 12.4613 11.4536 12.3891L11.5717 12.3544C11.8507 12.2582 12.181 12.0436 12.9477 11.5252L18.1036 8.03635L12.7049 4.99292C11.9307 4.55742 11.6623 4.41397 11.3927 4.35747ZM20 14.1251C20 14.8521 20.0012 15.4373 19.9631 15.9098C19.9244 16.3897 19.8424 16.8112 19.6465 17.2013C19.3351 17.8209 18.8382 18.3258 18.2272 18.6416C17.8426 18.8402 17.426 18.9233 16.9528 18.9626C16.4869 19.0012 15.9098 19 15.1929 19H6.808C6.09127 19 5.51411 19.0013 5.04814 18.9626C4.57445 18.9232 4.15781 18.8401 3.77278 18.6406C3.16232 18.3251 2.66579 17.8212 2.35437 17.2022C2.15847 16.8121 2.07653 16.3897 2.03784 15.9098C1.99977 15.4373 2 14.8521 2 14.1251V7.98581C2 7.74659 2.12788 7.52554 2.33407 7.40932L8.66475 3.84087C9.36405 3.4467 9.83453 3.17394 10.3452 3.06785C10.7233 2.98893 11.1117 2.97873 11.4923 3.0379L11.6557 3.06691L11.8458 3.11464C12.2869 3.24388 12.723 3.49647 13.3352 3.84087L19.6669 7.40932C19.8729 7.52558 20 7.74669 20 7.98581V14.1251Z" fill="currentColor"/>
</svg>
