<svg width="22" height="22" viewBox="0 0 22 22" fill="none" xmlns="http://www.w3.org/2000/svg">
<path d="M16.8684 17.9V15.5M16.8684 15.5V13.1M16.8684 15.5H14.5M16.8684 15.5H19.2368M8.50006 15.9998C7.31935 15.9998 6.2183 15.6588 5.29004 15.0698L4.01758 15.4939L4.01069 15.4959C3.52675 15.6573 3.28472 15.7379 3.12305 15.6803C2.98169 15.6299 2.86979 15.5184 2.81938 15.3771C2.76154 15.2149 2.84278 14.9711 3.00518 14.4839L3.00586 14.482L3.42989 13.21C2.84094 12.2817 2.5 11.1807 2.5 10C2.5 6.68629 5.18629 4 8.5 4C11.8137 4 14.5 6.68629 14.5 10C14.5 13.2003 11.9946 15.8151 8.83814 15.9905C8.72624 15.9967 8.61352 15.9998 8.50006 15.9998Z" stroke="currentColor" stroke-linecap="round" stroke-linejoin="round"/>
</svg>
