<svg width="215" height="50" viewBox="0 0 215 50" fill="none" xmlns="http://www.w3.org/2000/svg">
<g clip-path="url(#clip0_1_140)">
<path d="M10.0039 30.0016L15.6137 24.3922C18.4265 21.5795 22.2406 19.9984 26.2215 19.9984H50.0035V30.0016H16.0348C14.4377 30.0016 12.8962 30.6372 11.7679 31.7655C10.6396 32.8937 10.0039 34.4351 10.0039 36.0321V50H0V26.2117C0 22.2311 1.58123 18.4173 4.39408 15.6046L15.6057 4.39377C18.4186 1.58112 22.2326 0 26.2135 0H50.0035V10.0032H16.0348C14.4377 10.0032 12.8962 10.6388 11.7679 11.767C10.6396 12.8953 10.0039 14.4367 10.0039 16.0337V30.0016Z" fill="currentColor"/>
<path d="M105.005 39.9968V50H81.215C77.2341 50 73.42 48.4189 70.6072 45.6062L59.3955 34.3954C56.5827 31.5827 55.0015 27.7689 55.0015 23.7883V0H65.0053V33.9584C65.0053 35.5633 65.641 37.0968 66.7773 38.233C67.9056 39.3612 69.4471 39.9968 71.0442 39.9968H105.005Z" fill="currentColor"/>
<path d="M215.008 0H185.004V10.0032H215.008V0Z" fill="currentColor"/>
<path d="M195 26.2117V50H184.996V16.0257C184.996 14.4287 184.361 12.8953 183.232 11.767C182.104 10.6388 180.571 10.0032 178.973 10.0032H164.997V0H168.787C172.768 0 176.582 1.58112 179.395 4.39377L190.606 15.6046C193.419 18.4173 195 22.2311 195 26.2117Z" fill="currentColor"/>
<path d="M125.609 4.39377L114.397 15.6046C111.584 18.4173 110.003 22.2311 110.003 26.2117V50H133.793C137.774 50 141.588 48.4189 144.401 45.6062L150.011 39.9968V50H160.014V0H136.224C132.243 0 128.429 1.58112 125.617 4.39377H125.609ZM148.231 38.233C147.102 39.3612 145.561 39.9968 143.964 39.9968H119.999V16.0337C119.999 14.4367 120.635 12.8953 121.763 11.767C122.891 10.6388 124.433 10.0032 126.03 10.0032H149.995V33.9663C149.995 35.5713 149.359 37.1047 148.223 38.2409L148.231 38.233Z" fill="currentColor"/>
</g>
<defs>
<clipPath id="clip0_1_140">
<rect width="215" height="50" fill="white"/>
</clipPath>
</defs>
</svg>
