<svg width="22" height="22" viewBox="0 0 22 22" fill="none" xmlns="http://www.w3.org/2000/svg">
<path d="M13.7503 16.5V17.5C13.7503 19.1569 12.4072 20.5 10.7503 20.5C9.09349 20.5 7.75034 19.1569 7.75034 17.5V16.5M13.7503 16.5H7.75034M13.7503 16.5H17.3408C17.7234 16.5 17.9155 16.5 18.0704 16.4478C18.3663 16.348 18.5978 16.1156 18.6976 15.8198C18.7501 15.6643 18.7501 15.4715 18.7501 15.0859C18.7501 14.9172 18.7499 14.8329 18.7367 14.7524C18.7117 14.6004 18.6527 14.4563 18.5629 14.3312C18.5154 14.2651 18.4551 14.2048 18.3362 14.0858L17.9466 13.6963C17.821 13.5706 17.7503 13.4001 17.7503 13.2224V9.5C17.7503 5.634 14.6163 2.49999 10.7503 2.5C6.88435 2.50001 3.75034 5.63401 3.75034 9.5V13.2224C3.75034 13.4002 3.67958 13.5706 3.55391 13.6963L3.1644 14.0858C3.0451 14.2051 2.98538 14.265 2.93784 14.3312C2.84799 14.4564 2.78849 14.6004 2.76354 14.7524C2.75034 14.8329 2.75034 14.9172 2.75034 15.086C2.75034 15.4715 2.75034 15.6642 2.80279 15.8197C2.90259 16.1156 3.13514 16.348 3.431 16.4478C3.5859 16.5 3.77735 16.5 4.15989 16.5H7.75034" stroke="currentColor" stroke-linecap="round" stroke-linejoin="round"/>
</svg>
