<svg width="22" height="22" viewBox="0 0 22 22" fill="none" xmlns="http://www.w3.org/2000/svg">
<path d="M19.7423 5.5C19.7423 7.70914 17.9515 9.5 15.7423 9.5C13.5332 9.5 11.7423 7.70914 11.7423 5.5C11.7423 3.29086 13.5332 1.5 15.7423 1.5C17.9515 1.5 19.7423 3.29086 19.7423 5.5Z" fill="#FF6E70"/>
<path d="M15.75 1C18.2353 1 20.25 3.01472 20.25 5.5C20.25 7.06252 19.4524 8.43689 18.2451 9.24316C18.248 9.32856 18.25 9.4142 18.25 9.5V13.2227C18.2501 13.2678 18.2681 13.3111 18.2998 13.3428L18.8105 13.8535L18.9102 13.9639C19.1286 14.2306 19.25 14.5659 19.25 14.9141V15.5C19.25 16.3284 18.5784 17 17.75 17H14.25V17.5C14.25 19.433 12.683 21 10.75 21C8.817 21 7.25 19.433 7.25 17.5V17H3.75C2.92143 17 2.25011 16.3281 2.25 15.5V14.9141C2.25 14.5159 2.40846 14.1346 2.68945 13.8535L3.2002 13.3428L3.2373 13.2871C3.24571 13.2668 3.24997 13.245 3.25 13.2227V9.5C3.25 5.35789 6.60786 2 10.75 2C11.4046 2 12.0402 2.08419 12.6465 2.24219C13.4535 1.47328 14.5466 1 15.75 1ZM8.25 17.5C8.25 18.8807 9.36929 20 10.75 20C12.1307 20 13.25 18.8807 13.25 17.5V17H8.25V17.5ZM10.75 3C7.16014 3 4.25 5.91017 4.25 9.5V13.2227C4.24994 13.5334 4.1263 13.8307 3.90723 14.0498L3.90625 14.0488L3.39648 14.5605C3.30243 14.6546 3.25 14.7818 3.25 14.9141V15.5C3.25011 15.7763 3.47415 16 3.75 16H17.75C18.0262 16 18.25 15.7762 18.25 15.5V14.9141C18.25 14.8148 18.2205 14.7184 18.166 14.6367L18.1035 14.5605L17.5928 14.0498C17.3733 13.8303 17.2501 13.5327 17.25 13.2227V9.74219C16.7804 9.90825 16.2757 10 15.75 10C13.2647 10 11.25 7.98528 11.25 5.5C11.25 4.62152 11.5021 3.80125 11.9375 3.1084C11.5527 3.0374 11.1559 3 10.75 3ZM15.75 2C14.7262 2 13.8057 2.43911 13.165 3.14062C12.5965 3.76324 12.25 4.59067 12.25 5.5C12.25 7.433 13.817 9 15.75 9C16.3812 9 16.9721 8.83336 17.4824 8.54199C18.5393 7.93855 19.25 6.80189 19.25 5.5C19.25 3.567 17.683 2 15.75 2Z" fill="currentColor"/>
</svg>
